<svg width="820" height="89" viewBox="0 0 820 89" fill="none" xmlns="http://www.w3.org/2000/svg">
<path d="M91.7245 0H75.8767V88.2776H91.7245V0Z" fill="#FFD300"/>
<path d="M202.471 0H186.623V88.2776H202.471V0Z" fill="#FFD300"/>
<path d="M216.696 0V15.2104H240.142V88.2776H255.681V15.2104H279.127V0H216.696Z" fill="#FFD300"/>
<path d="M319.586 0H306.909L274.805 88.2776H291.583L297.832 69.7812H328.616L334.865 88.2776H351.643L319.586 0ZM303.011 54.5707L313.251 24.3716L323.492 54.5787L303.011 54.5707Z" fill="#FFD300"/>
<path d="M376.547 73.0672V0H361.154V88.2776H417.822V73.0672H376.547Z" fill="#FFD300"/>
<path d="M447.314 0H431.947V88.2776H447.314V0Z" fill="#FFD300"/>
<path d="M484.374 73.0672L518.63 13.1834L518.894 12.7242V0H465.822V15.2104H499.59L464.799 75.5534V88.2776H520.026V73.0672H484.374Z" fill="#FFD300"/>
<path d="M577.313 0H564.715L532.812 88.2776H549.486L555.696 69.7812H586.287L592.497 88.2776H609.17L577.313 0ZM560.842 54.5707L571.01 24.3716L581.187 54.5787L560.842 54.5707Z" fill="#FFD300"/>
<path d="M603.406 0V15.2104H626.855V88.2776H642.389V15.2104H665.837V0H603.406Z" fill="#FFD300"/>
<path d="M47.9481 0H0V88.2776H47.9481L61.4703 74.536V13.7416L47.9481 0ZM45.9896 63.8155L36.1113 73.8541H15.1686V14.9468H36.1113L45.9818 24.9775L45.9896 63.8155Z" fill="#FFD300"/>
<path d="M801.998 0H753.868L753.727 88.2776L769.186 88.143V51.9448H784.512L801.473 87.6519L820 87.5172L801.998 51.9369L815.437 38.2101V13.7268L801.998 0ZM800.033 32.7368L794.303 37.5289H769.116V14.9228H794.303L800.033 21.2595V32.7368Z" fill="#FFD300"/>
<path d="M152.452 26.6379H168.374V0.110991L122.242 0L105.944 15.8004V74.3561L122.187 88.2459L168.304 88.2776L168.241 45.3954H141.1V60.5932H152.452L152.585 71.3594L131.057 71.4307L121.467 64.2242V24.9175L131.315 15.0076L152.585 14.9442L152.452 26.6379Z" fill="#FFD300"/>
<path d="M725.73 0H690.756L677.748 13.2333V75.076L690.756 88.2776H725.73L738.738 75.076V13.2333L725.73 0ZM723.771 64.7411L716.108 73.3099H700.502L692.699 64.8758V23.4018L700.502 14.9677H716.108L723.771 23.5365V64.7411Z" fill="#FFD300"/>
</svg>
