<svg width="322" height="480" viewBox="0 0 322 480" fill="none" xmlns="http://www.w3.org/2000/svg">
<mask id="path-1-inside-1" fill="white">
<path d="M59.3408 377.815C67.0454 391.184 77.3078 402.905 89.542 412.308C101.776 421.711 115.743 428.612 130.644 432.618C145.546 436.623 161.09 437.654 176.39 435.652C191.69 433.65 206.446 428.654 219.815 420.95C233.184 413.245 244.905 402.983 254.308 390.749C263.711 378.514 270.612 364.548 274.617 349.646C278.623 334.745 279.654 319.201 277.652 303.901C275.65 288.601 270.654 273.845 262.95 260.476L208.307 291.966C211.876 298.16 214.19 304.995 215.118 312.083C216.045 319.171 215.568 326.372 213.712 333.275C211.856 340.178 208.659 346.648 204.303 352.316C199.947 357.984 194.518 362.738 188.324 366.307C182.131 369.876 175.295 372.191 168.207 373.118C161.12 374.045 153.919 373.568 147.015 371.712C140.112 369.857 133.642 366.66 127.975 362.303C122.307 357.947 117.553 352.518 113.984 346.324L59.3408 377.815Z"/>
</mask>
<path d="M59.3408 377.815C67.0454 391.184 77.3078 402.905 89.542 412.308C101.776 421.711 115.743 428.612 130.644 432.618C145.546 436.623 161.09 437.654 176.39 435.652C191.69 433.65 206.446 428.654 219.815 420.95C233.184 413.245 244.905 402.983 254.308 390.749C263.711 378.514 270.612 364.548 274.617 349.646C278.623 334.745 279.654 319.201 277.652 303.901C275.65 288.601 270.654 273.845 262.95 260.476L208.307 291.966C211.876 298.16 214.19 304.995 215.118 312.083C216.045 319.171 215.568 326.372 213.712 333.275C211.856 340.178 208.659 346.648 204.303 352.316C199.947 357.984 194.518 362.738 188.324 366.307C182.131 369.876 175.295 372.191 168.207 373.118C161.12 374.045 153.919 373.568 147.015 371.712C140.112 369.857 133.642 366.66 127.975 362.303C122.307 357.947 117.553 352.518 113.984 346.324L59.3408 377.815Z" stroke="#FFD300" stroke-width="134" mask="url(#path-1-inside-1)"/>
<mask id="path-2-inside-2" fill="white">
<path d="M257.89 32.8061C251.025 28.4979 243.378 25.5841 235.387 24.2311C227.396 22.878 219.216 23.1122 211.315 24.9203C203.415 26.7284 195.947 30.0749 189.34 34.7688C182.733 39.4627 177.114 45.4121 172.806 52.2773C168.498 59.1425 165.584 66.789 164.231 74.7802C162.878 82.7715 163.112 90.951 164.92 98.8517C166.728 106.752 170.075 114.22 174.769 120.827C179.463 127.435 185.412 133.053 192.277 137.361L213.591 103.397C211.186 101.888 209.102 99.9197 207.458 97.605C205.813 95.2904 204.641 92.6745 204.007 89.9067C203.374 87.1389 203.292 84.2735 203.766 81.4741C204.24 78.6746 205.261 75.9959 206.77 73.5909C208.279 71.186 210.247 69.1018 212.562 67.4574C214.877 65.8131 217.493 64.6408 220.26 64.0074C223.028 63.374 225.894 63.2919 228.693 63.7659C231.492 64.2399 234.171 65.2606 236.576 66.7699L257.89 32.8061Z"/>
</mask>
<path d="M257.89 32.8061C251.025 28.4979 243.378 25.5841 235.387 24.2311C227.396 22.878 219.216 23.1122 211.315 24.9203C203.415 26.7284 195.947 30.0749 189.34 34.7688C182.733 39.4627 177.114 45.4121 172.806 52.2773C168.498 59.1425 165.584 66.789 164.231 74.7802C162.878 82.7715 163.112 90.951 164.92 98.8517C166.728 106.752 170.075 114.22 174.769 120.827C179.463 127.435 185.412 133.053 192.277 137.361L213.591 103.397C211.186 101.888 209.102 99.9197 207.458 97.605C205.813 95.2904 204.641 92.6745 204.007 89.9067C203.374 87.1389 203.292 84.2735 203.766 81.4741C204.24 78.6746 205.261 75.9959 206.77 73.5909C208.279 71.186 210.247 69.1018 212.562 67.4574C214.877 65.8131 217.493 64.6408 220.26 64.0074C223.028 63.374 225.894 63.2919 228.693 63.7659C231.492 64.2399 234.171 65.2606 236.576 66.7699L257.89 32.8061Z" stroke="#FFD300" stroke-width="134" mask="url(#path-2-inside-2)"/>
<circle cx="117.217" cy="215.217" r="17.2174" fill="#FFD300"/>
</svg>
