<svg width="619" height="465" viewBox="0 0 619 465" fill="none" xmlns="http://www.w3.org/2000/svg">
<g opacity="0.2">
<path d="M1.89879 3.79758C2.94747 3.79758 3.79759 2.94747 3.79759 1.89879C3.79759 0.850121 2.94747 0 1.89879 0C0.850121 0 0 0.850121 0 1.89879C0 2.94747 0.850121 3.79758 1.89879 3.79758Z" fill="white"/>
<path d="M78.6962 3.79758C79.7448 3.79758 80.5949 2.94747 80.5949 1.89879C80.5949 0.850121 79.7448 0 78.6962 0C77.6475 0 76.7974 0.850121 76.7974 1.89879C76.7974 2.94747 77.6475 3.79758 78.6962 3.79758Z" fill="white"/>
<path d="M155.494 3.79758C156.542 3.79758 157.392 2.94747 157.392 1.89879C157.392 0.850121 156.542 0 155.494 0C154.445 0 153.595 0.850121 153.595 1.89879C153.595 2.94747 154.445 3.79758 155.494 3.79758Z" fill="white"/>
<path d="M232.291 3.79758C233.34 3.79758 234.19 2.94747 234.19 1.89879C234.19 0.850121 233.34 0 232.291 0C231.242 0 230.392 0.850121 230.392 1.89879C230.392 2.94747 231.242 3.79758 232.291 3.79758Z" fill="white"/>
<path d="M309.088 3.79758C310.137 3.79758 310.987 2.94747 310.987 1.89879C310.987 0.850121 310.137 0 309.088 0C308.04 0 307.189 0.850121 307.189 1.89879C307.189 2.94747 308.04 3.79758 309.088 3.79758Z" fill="white"/>
<path d="M385.886 3.79758C386.934 3.79758 387.784 2.94747 387.784 1.89879C387.784 0.850121 386.934 0 385.886 0C384.837 0 383.987 0.850121 383.987 1.89879C383.987 2.94747 384.837 3.79758 385.886 3.79758Z" fill="white"/>
<path d="M462.683 3.79758C463.732 3.79758 464.582 2.94747 464.582 1.89879C464.582 0.850121 463.732 0 462.683 0C461.634 0 460.784 0.850121 460.784 1.89879C460.784 2.94747 461.634 3.79758 462.683 3.79758Z" fill="white"/>
<path d="M539.48 3.79758C540.529 3.79758 541.379 2.94747 541.379 1.89879C541.379 0.850121 540.529 0 539.48 0C538.432 0 537.582 0.850121 537.582 1.89879C537.582 2.94747 538.432 3.79758 539.48 3.79758Z" fill="white"/>
<path d="M616.278 3.79758C617.326 3.79758 618.177 2.94747 618.177 1.89879C618.177 0.850121 617.326 0 616.278 0C615.229 0 614.379 0.850121 614.379 1.89879C614.379 2.94747 615.229 3.79758 616.278 3.79758Z" fill="white"/>
<path d="M1.89879 80.5952C2.94747 80.5952 3.79759 79.7451 3.79759 78.6964C3.79759 77.6477 2.94747 76.7976 1.89879 76.7976C0.850121 76.7976 0 77.6477 0 78.6964C0 79.7451 0.850121 80.5952 1.89879 80.5952Z" fill="white"/>
<path d="M78.6962 80.5952C79.7448 80.5952 80.5949 79.7451 80.5949 78.6964C80.5949 77.6477 79.7448 76.7976 78.6962 76.7976C77.6475 76.7976 76.7974 77.6477 76.7974 78.6964C76.7974 79.7451 77.6475 80.5952 78.6962 80.5952Z" fill="white"/>
<path d="M155.494 80.5952C156.542 80.5952 157.392 79.7451 157.392 78.6964C157.392 77.6477 156.542 76.7976 155.494 76.7976C154.445 76.7976 153.595 77.6477 153.595 78.6964C153.595 79.7451 154.445 80.5952 155.494 80.5952Z" fill="white"/>
<path d="M232.291 80.5952C233.34 80.5952 234.19 79.7451 234.19 78.6964C234.19 77.6477 233.34 76.7976 232.291 76.7976C231.242 76.7976 230.392 77.6477 230.392 78.6964C230.392 79.7451 231.242 80.5952 232.291 80.5952Z" fill="white"/>
<path d="M309.088 80.5952C310.137 80.5952 310.987 79.7451 310.987 78.6964C310.987 77.6477 310.137 76.7976 309.088 76.7976C308.04 76.7976 307.189 77.6477 307.189 78.6964C307.189 79.7451 308.04 80.5952 309.088 80.5952Z" fill="white"/>
<path d="M385.886 80.5952C386.934 80.5952 387.784 79.7451 387.784 78.6964C387.784 77.6477 386.934 76.7976 385.886 76.7976C384.837 76.7976 383.987 77.6477 383.987 78.6964C383.987 79.7451 384.837 80.5952 385.886 80.5952Z" fill="white"/>
<path d="M462.683 80.5952C463.732 80.5952 464.582 79.7451 464.582 78.6964C464.582 77.6477 463.732 76.7976 462.683 76.7976C461.634 76.7976 460.784 77.6477 460.784 78.6964C460.784 79.7451 461.634 80.5952 462.683 80.5952Z" fill="white"/>
<path d="M539.48 80.5952C540.529 80.5952 541.379 79.7451 541.379 78.6964C541.379 77.6477 540.529 76.7976 539.48 76.7976C538.432 76.7976 537.582 77.6477 537.582 78.6964C537.582 79.7451 538.432 80.5952 539.48 80.5952Z" fill="white"/>
<path d="M616.278 80.5952C617.326 80.5952 618.177 79.7451 618.177 78.6964C618.177 77.6477 617.326 76.7976 616.278 76.7976C615.229 76.7976 614.379 77.6477 614.379 78.6964C614.379 79.7451 615.229 80.5952 616.278 80.5952Z" fill="white"/>
<path d="M1.89879 157.393C2.94747 157.393 3.79759 156.543 3.79759 155.494C3.79759 154.445 2.94747 153.595 1.89879 153.595C0.850121 153.595 0 154.445 0 155.494C0 156.543 0.850121 157.393 1.89879 157.393Z" fill="white"/>
<path d="M78.6962 157.393C79.7448 157.393 80.5949 156.543 80.5949 155.494C80.5949 154.445 79.7448 153.595 78.6962 153.595C77.6475 153.595 76.7974 154.445 76.7974 155.494C76.7974 156.543 77.6475 157.393 78.6962 157.393Z" fill="white"/>
<path d="M155.494 157.393C156.542 157.393 157.392 156.543 157.392 155.494C157.392 154.445 156.542 153.595 155.494 153.595C154.445 153.595 153.595 154.445 153.595 155.494C153.595 156.543 154.445 157.393 155.494 157.393Z" fill="white"/>
<path d="M232.291 157.393C233.34 157.393 234.19 156.543 234.19 155.494C234.19 154.445 233.34 153.595 232.291 153.595C231.242 153.595 230.392 154.445 230.392 155.494C230.392 156.543 231.242 157.393 232.291 157.393Z" fill="white"/>
<path d="M309.088 157.393C310.137 157.393 310.987 156.543 310.987 155.494C310.987 154.445 310.137 153.595 309.088 153.595C308.04 153.595 307.189 154.445 307.189 155.494C307.189 156.543 308.04 157.393 309.088 157.393Z" fill="white"/>
<path d="M385.886 157.393C386.934 157.393 387.784 156.543 387.784 155.494C387.784 154.445 386.934 153.595 385.886 153.595C384.837 153.595 383.987 154.445 383.987 155.494C383.987 156.543 384.837 157.393 385.886 157.393Z" fill="white"/>
<path d="M462.683 157.393C463.732 157.393 464.582 156.543 464.582 155.494C464.582 154.445 463.732 153.595 462.683 153.595C461.634 153.595 460.784 154.445 460.784 155.494C460.784 156.543 461.634 157.393 462.683 157.393Z" fill="white"/>
<path d="M539.48 157.393C540.529 157.393 541.379 156.543 541.379 155.494C541.379 154.445 540.529 153.595 539.48 153.595C538.432 153.595 537.582 154.445 537.582 155.494C537.582 156.543 538.432 157.393 539.48 157.393Z" fill="white"/>
<path d="M616.278 157.393C617.326 157.393 618.177 156.543 618.177 155.494C618.177 154.445 617.326 153.595 616.278 153.595C615.229 153.595 614.379 154.445 614.379 155.494C614.379 156.543 615.229 157.393 616.278 157.393Z" fill="white"/>
<path d="M1.89879 234.19C2.94747 234.19 3.79759 233.34 3.79759 232.292C3.79759 231.243 2.94747 230.393 1.89879 230.393C0.850121 230.393 0 231.243 0 232.292C0 233.34 0.850121 234.19 1.89879 234.19Z" fill="white"/>
<path d="M78.6962 234.19C79.7448 234.19 80.5949 233.34 80.5949 232.292C80.5949 231.243 79.7448 230.393 78.6962 230.393C77.6475 230.393 76.7974 231.243 76.7974 232.292C76.7974 233.34 77.6475 234.19 78.6962 234.19Z" fill="white"/>
<path d="M155.494 234.19C156.542 234.19 157.392 233.34 157.392 232.292C157.392 231.243 156.542 230.393 155.494 230.393C154.445 230.393 153.595 231.243 153.595 232.292C153.595 233.34 154.445 234.19 155.494 234.19Z" fill="white"/>
<path d="M232.291 234.19C233.34 234.19 234.19 233.34 234.19 232.292C234.19 231.243 233.34 230.393 232.291 230.393C231.242 230.393 230.392 231.243 230.392 232.292C230.392 233.34 231.242 234.19 232.291 234.19Z" fill="white"/>
<path d="M309.088 234.19C310.137 234.19 310.987 233.34 310.987 232.292C310.987 231.243 310.137 230.393 309.088 230.393C308.04 230.393 307.189 231.243 307.189 232.292C307.189 233.34 308.04 234.19 309.088 234.19Z" fill="white"/>
<path d="M385.886 234.19C386.934 234.19 387.784 233.34 387.784 232.292C387.784 231.243 386.934 230.393 385.886 230.393C384.837 230.393 383.987 231.243 383.987 232.292C383.987 233.34 384.837 234.19 385.886 234.19Z" fill="white"/>
<path d="M462.683 234.19C463.732 234.19 464.582 233.34 464.582 232.292C464.582 231.243 463.732 230.393 462.683 230.393C461.634 230.393 460.784 231.243 460.784 232.292C460.784 233.34 461.634 234.19 462.683 234.19Z" fill="white"/>
<path d="M539.48 234.19C540.529 234.19 541.379 233.34 541.379 232.292C541.379 231.243 540.529 230.393 539.48 230.393C538.432 230.393 537.582 231.243 537.582 232.292C537.582 233.34 538.432 234.19 539.48 234.19Z" fill="white"/>
<path d="M616.278 234.19C617.326 234.19 618.177 233.34 618.177 232.292C618.177 231.243 617.326 230.393 616.278 230.393C615.229 230.393 614.379 231.243 614.379 232.292C614.379 233.34 615.229 234.19 616.278 234.19Z" fill="white"/>
<path d="M1.89879 310.988C2.94747 310.988 3.79759 310.138 3.79759 309.089C3.79759 308.041 2.94747 307.19 1.89879 307.19C0.850121 307.19 0 308.041 0 309.089C0 310.138 0.850121 310.988 1.89879 310.988Z" fill="white"/>
<path d="M78.6962 310.988C79.7448 310.988 80.5949 310.138 80.5949 309.089C80.5949 308.041 79.7448 307.19 78.6962 307.19C77.6475 307.19 76.7974 308.041 76.7974 309.089C76.7974 310.138 77.6475 310.988 78.6962 310.988Z" fill="white"/>
<path d="M155.494 310.988C156.542 310.988 157.392 310.138 157.392 309.089C157.392 308.041 156.542 307.19 155.494 307.19C154.445 307.19 153.595 308.041 153.595 309.089C153.595 310.138 154.445 310.988 155.494 310.988Z" fill="white"/>
<path d="M232.291 310.988C233.34 310.988 234.19 310.138 234.19 309.089C234.19 308.041 233.34 307.19 232.291 307.19C231.242 307.19 230.392 308.041 230.392 309.089C230.392 310.138 231.242 310.988 232.291 310.988Z" fill="white"/>
<path d="M309.088 310.988C310.137 310.988 310.987 310.138 310.987 309.089C310.987 308.041 310.137 307.19 309.088 307.19C308.04 307.19 307.189 308.041 307.189 309.089C307.189 310.138 308.04 310.988 309.088 310.988Z" fill="white"/>
<path d="M385.886 310.988C386.934 310.988 387.784 310.138 387.784 309.089C387.784 308.041 386.934 307.19 385.886 307.19C384.837 307.19 383.987 308.041 383.987 309.089C383.987 310.138 384.837 310.988 385.886 310.988Z" fill="white"/>
<path d="M462.683 310.988C463.732 310.988 464.582 310.138 464.582 309.089C464.582 308.041 463.732 307.19 462.683 307.19C461.634 307.19 460.784 308.041 460.784 309.089C460.784 310.138 461.634 310.988 462.683 310.988Z" fill="white"/>
<path d="M539.48 310.988C540.529 310.988 541.379 310.138 541.379 309.089C541.379 308.041 540.529 307.19 539.48 307.19C538.432 307.19 537.582 308.041 537.582 309.089C537.582 310.138 538.432 310.988 539.48 310.988Z" fill="white"/>
<path d="M616.278 310.988C617.326 310.988 618.177 310.138 618.177 309.089C618.177 308.041 617.326 307.19 616.278 307.19C615.229 307.19 614.379 308.041 614.379 309.089C614.379 310.138 615.229 310.988 616.278 310.988Z" fill="white"/>
<path d="M1.89879 387.786C2.94747 387.786 3.79759 386.935 3.79759 385.887C3.79759 384.838 2.94747 383.988 1.89879 383.988C0.850121 383.988 0 384.838 0 385.887C0 386.935 0.850121 387.786 1.89879 387.786Z" fill="white"/>
<path d="M78.6962 387.786C79.7448 387.786 80.5949 386.935 80.5949 385.887C80.5949 384.838 79.7448 383.988 78.6962 383.988C77.6475 383.988 76.7974 384.838 76.7974 385.887C76.7974 386.935 77.6475 387.786 78.6962 387.786Z" fill="white"/>
<path d="M155.494 387.786C156.542 387.786 157.392 386.935 157.392 385.887C157.392 384.838 156.542 383.988 155.494 383.988C154.445 383.988 153.595 384.838 153.595 385.887C153.595 386.935 154.445 387.786 155.494 387.786Z" fill="white"/>
<path d="M232.291 387.786C233.34 387.786 234.19 386.935 234.19 385.887C234.19 384.838 233.34 383.988 232.291 383.988C231.242 383.988 230.392 384.838 230.392 385.887C230.392 386.935 231.242 387.786 232.291 387.786Z" fill="white"/>
<path d="M309.088 387.786C310.137 387.786 310.987 386.935 310.987 385.887C310.987 384.838 310.137 383.988 309.088 383.988C308.04 383.988 307.189 384.838 307.189 385.887C307.189 386.935 308.04 387.786 309.088 387.786Z" fill="white"/>
<path d="M385.886 387.786C386.934 387.786 387.784 386.935 387.784 385.887C387.784 384.838 386.934 383.988 385.886 383.988C384.837 383.988 383.987 384.838 383.987 385.887C383.987 386.935 384.837 387.786 385.886 387.786Z" fill="white"/>
<path d="M462.683 387.786C463.732 387.786 464.582 386.935 464.582 385.887C464.582 384.838 463.732 383.988 462.683 383.988C461.634 383.988 460.784 384.838 460.784 385.887C460.784 386.935 461.634 387.786 462.683 387.786Z" fill="white"/>
<path d="M539.48 387.786C540.529 387.786 541.379 386.935 541.379 385.887C541.379 384.838 540.529 383.988 539.48 383.988C538.432 383.988 537.582 384.838 537.582 385.887C537.582 386.935 538.432 387.786 539.48 387.786Z" fill="white"/>
<path d="M616.278 387.786C617.326 387.786 618.177 386.935 618.177 385.887C618.177 384.838 617.326 383.988 616.278 383.988C615.229 383.988 614.379 384.838 614.379 385.887C614.379 386.935 615.229 387.786 616.278 387.786Z" fill="white"/>
<path d="M1.89879 464.583C2.94747 464.583 3.79759 463.733 3.79759 462.684C3.79759 461.636 2.94747 460.786 1.89879 460.786C0.850121 460.786 0 461.636 0 462.684C0 463.733 0.850121 464.583 1.89879 464.583Z" fill="white"/>
<path d="M78.6962 464.583C79.7448 464.583 80.5949 463.733 80.5949 462.684C80.5949 461.636 79.7448 460.786 78.6962 460.786C77.6475 460.786 76.7974 461.636 76.7974 462.684C76.7974 463.733 77.6475 464.583 78.6962 464.583Z" fill="white"/>
<path d="M155.494 464.583C156.542 464.583 157.392 463.733 157.392 462.684C157.392 461.636 156.542 460.786 155.494 460.786C154.445 460.786 153.595 461.636 153.595 462.684C153.595 463.733 154.445 464.583 155.494 464.583Z" fill="white"/>
<path d="M232.291 464.583C233.34 464.583 234.19 463.733 234.19 462.684C234.19 461.636 233.34 460.786 232.291 460.786C231.242 460.786 230.392 461.636 230.392 462.684C230.392 463.733 231.242 464.583 232.291 464.583Z" fill="white"/>
<path d="M309.088 464.583C310.137 464.583 310.987 463.733 310.987 462.684C310.987 461.636 310.137 460.786 309.088 460.786C308.04 460.786 307.189 461.636 307.189 462.684C307.189 463.733 308.04 464.583 309.088 464.583Z" fill="white"/>
<path d="M385.886 464.583C386.934 464.583 387.784 463.733 387.784 462.684C387.784 461.636 386.934 460.786 385.886 460.786C384.837 460.786 383.987 461.636 383.987 462.684C383.987 463.733 384.837 464.583 385.886 464.583Z" fill="white"/>
<path d="M462.683 464.583C463.732 464.583 464.582 463.733 464.582 462.684C464.582 461.636 463.732 460.786 462.683 460.786C461.634 460.786 460.784 461.636 460.784 462.684C460.784 463.733 461.634 464.583 462.683 464.583Z" fill="white"/>
<path d="M539.48 464.583C540.529 464.583 541.379 463.733 541.379 462.684C541.379 461.636 540.529 460.786 539.48 460.786C538.432 460.786 537.582 461.636 537.582 462.684C537.582 463.733 538.432 464.583 539.48 464.583Z" fill="white"/>
<path d="M616.278 464.583C617.326 464.583 618.177 463.733 618.177 462.684C618.177 461.636 617.326 460.786 616.278 460.786C615.229 460.786 614.379 461.636 614.379 462.684C614.379 463.733 615.229 464.583 616.278 464.583Z" fill="white"/>
</g>
</svg>
