<svg width="393" height="600" viewBox="0 0 393 600" fill="none" xmlns="http://www.w3.org/2000/svg">
<g opacity="0.3">
<path d="M38.9102 1C38.9102 1 89.7901 90.79 215.49 74.82C356.43 56.92 417 160.62 382.09 231.4C347.18 302.18 192.09 317.2 213.75 431.92C235.41 546.64 46.8902 598.57 46.8902 598.57" stroke="white" stroke-miterlimit="10"/>
<path d="M1 104.75C1 104.75 108.44 143.66 215.34 129.69C322.24 115.72 334.74 178.51 322.24 203.51C296.3 255.4 157.63 265.4 148.65 349.17C141.9 412.17 195.54 496.82 73.83 541.71" stroke="white" stroke-miterlimit="10"/>
<path d="M48.8799 146.65C48.8799 146.65 158.7 132.65 139.09 194.54C116.62 265.49 63.8399 264.37 113.72 354.16C131.46 386.1 136.67 514.78 38.8999 488.84" stroke="white" stroke-miterlimit="10"/>
<path d="M234.94 218.48C262.212 218.48 284.32 206.418 284.32 191.54C284.32 176.661 262.212 164.6 234.94 164.6C207.668 164.6 185.56 176.661 185.56 191.54C185.56 206.418 207.668 218.48 234.94 218.48Z" stroke="white" stroke-miterlimit="10"/>
</g>
</svg>
