<svg width="195" height="196" viewBox="0 0 195 196" fill="none" xmlns="http://www.w3.org/2000/svg">
<path d="M97.5 15C86.6659 15 75.938 17.1469 65.9286 21.318C55.9192 25.4891 46.8245 31.6029 39.1637 39.3101C31.5028 47.0174 25.4259 56.1673 21.2799 66.2373C17.1339 76.3073 15 87.1003 15 98C15 108.9 17.1339 119.693 21.2799 129.763C25.426 139.833 31.5029 148.983 39.1637 156.69C46.8245 164.397 55.9193 170.511 65.9286 174.682C75.938 178.853 86.666 181 97.5 181L97.5 98L97.5 15Z" fill="#FFD300"/>
<mask id="path-2-inside-1" fill="white">
<path d="M97.5 1.09969e-05C84.6961 1.15566e-05 72.0176 2.53486 60.1884 7.45982C48.3591 12.3848 37.6108 19.6034 28.5571 28.7036C19.5034 37.8037 12.3216 48.6071 7.42174 60.497C2.52191 72.3869 -5.40594e-06 85.1305 -4.28372e-06 98C-3.16149e-06 110.87 2.52191 123.613 7.42175 135.503C12.3216 147.393 19.5034 158.196 28.5571 167.296C37.6108 176.397 48.3591 183.615 60.1884 188.54C72.0176 193.465 84.6961 196 97.5 196L97.5 98L97.5 1.09969e-05Z"/>
</mask>
<path d="M97.5 1.09969e-05C84.6961 1.15566e-05 72.0176 2.53486 60.1884 7.45982C48.3591 12.3848 37.6108 19.6034 28.5571 28.7036C19.5034 37.8037 12.3216 48.6071 7.42174 60.497C2.52191 72.3869 -5.40594e-06 85.1305 -4.28372e-06 98C-3.16149e-06 110.87 2.52191 123.613 7.42175 135.503C12.3216 147.393 19.5034 158.196 28.5571 167.296C37.6108 176.397 48.3591 183.615 60.1884 188.54C72.0176 193.465 84.6961 196 97.5 196L97.5 98L97.5 1.09969e-05Z" stroke="#FFD300" stroke-width="2" mask="url(#path-2-inside-1)"/>
<g clip-path="url(#clip0)">
<path d="M78.2188 91.3828H65.3806V86.404C65.3806 84.2083 67.2276 82.4219 69.4978 82.4219C71.768 82.4219 73.6149 84.2083 73.6149 86.404V88.7188H76.0368V86.404C76.0368 82.8728 73.1034 80 69.4978 80C65.8921 80 62.9587 82.8728 62.9587 86.404V91.3828H60.7812C58.7781 91.3828 57.1484 93.0125 57.1484 95.0156V107.367C57.1484 109.37 58.7781 111 60.7812 111H78.2188C80.2219 111 81.8516 109.37 81.8516 107.367V95.0156C81.8516 93.0125 80.2219 91.3828 78.2188 91.3828ZM79.4297 107.367C79.4297 108.035 78.8865 108.578 78.2188 108.578H60.7812C60.1135 108.578 59.5703 108.035 59.5703 107.367V95.0156C59.5703 94.3479 60.1135 93.8047 60.7812 93.8047H78.2188C78.8865 93.8047 79.4297 94.3479 79.4297 95.0156V107.367Z" fill="black"/>
<path d="M69.5 97.3164C68.2627 97.3164 67.2598 98.3194 67.2598 99.5566C67.2598 100.347 67.6691 101.041 68.2868 101.44V104.098C68.2868 104.766 68.829 105.309 69.4978 105.309C70.1665 105.309 70.7087 104.766 70.7087 104.098V101.442C71.3289 101.044 71.7402 100.349 71.7402 99.5566C71.7402 98.3194 70.7373 97.3164 69.5 97.3164Z" fill="black"/>
</g>
<defs>
<clipPath id="clip0">
<rect x="54" y="80" width="31" height="31" fill="white"/>
</clipPath>
</defs>
</svg>
