<svg width="160" height="160" viewBox="0 0 160 160" fill="none" xmlns="http://www.w3.org/2000/svg">
<path d="M148 80C148 71.0701 146.241 62.2277 142.824 53.9775C139.406 45.7274 134.398 38.2311 128.083 31.9167C121.769 25.6024 114.273 20.5935 106.022 17.1762C97.7723 13.7589 88.9299 12 80 12C71.0701 12 62.2277 13.7589 53.9775 17.1762C45.7274 20.5935 38.2311 25.6024 31.9167 31.9167C25.6024 38.2311 20.5935 45.7274 17.1762 53.9775C13.7589 62.2277 12 71.0701 12 80L80 80H148Z" fill="#FFD300"/>
<mask id="path-2-inside-1" fill="white">
<path d="M160 80C160 69.4942 157.931 59.0914 153.91 49.3853C149.89 39.6793 143.997 30.8601 136.569 23.4315C129.14 16.0028 120.321 10.11 110.615 6.08964C100.909 2.06926 90.5057 -4.59221e-07 80 0C69.4942 4.59221e-07 59.0914 2.06926 49.3853 6.08964C39.6793 10.11 30.8601 16.0028 23.4315 23.4315C16.0028 30.8601 10.11 39.6793 6.08963 49.3853C2.06926 59.0914 -9.18442e-07 69.4943 0 80L80 80H160Z"/>
</mask>
<path d="M160 80C160 69.4942 157.931 59.0914 153.91 49.3853C149.89 39.6793 143.997 30.8601 136.569 23.4315C129.14 16.0028 120.321 10.11 110.615 6.08964C100.909 2.06926 90.5057 -4.59221e-07 80 0C69.4942 4.59221e-07 59.0914 2.06926 49.3853 6.08964C39.6793 10.11 30.8601 16.0028 23.4315 23.4315C16.0028 30.8601 10.11 39.6793 6.08963 49.3853C2.06926 59.0914 -9.18442e-07 69.4943 0 80L80 80H160Z" stroke="#FFD300" stroke-width="2" mask="url(#path-2-inside-1)"/>
<g clip-path="url(#clip0)">
<path d="M89.2188 49.3828H76.3806V44.404C76.3806 42.2083 78.2276 40.4219 80.4978 40.4219C82.768 40.4219 84.6149 42.2083 84.6149 44.404V46.7188H87.0368V44.404C87.0368 40.8728 84.1034 38 80.4978 38C76.8921 38 73.9587 40.8728 73.9587 44.404V49.3828H71.7812C69.7781 49.3828 68.1484 51.0125 68.1484 53.0156V65.3672C68.1484 67.3703 69.7781 69 71.7812 69H89.2188C91.2219 69 92.8516 67.3703 92.8516 65.3672V53.0156C92.8516 51.0125 91.2219 49.3828 89.2188 49.3828ZM90.4297 65.3672C90.4297 66.0349 89.8865 66.5781 89.2188 66.5781H71.7812C71.1135 66.5781 70.5703 66.0349 70.5703 65.3672V53.0156C70.5703 52.3479 71.1135 51.8047 71.7812 51.8047H89.2188C89.8865 51.8047 90.4297 52.3479 90.4297 53.0156V65.3672Z" fill="black"/>
<path d="M80.5 55.3164C79.2627 55.3164 78.2598 56.3194 78.2598 57.5566C78.2598 58.3467 78.6691 59.0406 79.2868 59.4395V62.0977C79.2868 62.7664 79.829 63.3086 80.4978 63.3086C81.1665 63.3086 81.7087 62.7664 81.7087 62.0977V59.4424C82.3289 59.044 82.7402 58.3486 82.7402 57.5566C82.7402 56.3194 81.7373 55.3164 80.5 55.3164Z" fill="black"/>
</g>
<defs>
<clipPath id="clip0">
<rect x="65" y="38" width="31" height="31" fill="white"/>
</clipPath>
</defs>
</svg>
