<svg width="15" height="14" viewBox="0 0 15 14" fill="none" xmlns="http://www.w3.org/2000/svg">
<path d="M14.6186 3.50224L7.76135 0.444262C7.59534 0.369654 7.40559 0.369654 7.2387 0.444262L0.381748 3.50224C0.157922 3.6019 0.0101128 3.82126 0.00181221 4.06644C-0.00619717 4.31114 0.124817 4.53977 0.341264 4.65491L7.19812 8.31171C7.29268 8.36243 7.39631 8.38724 7.50024 8.38724C7.6047 8.38724 7.70819 8.36243 7.8029 8.31171L14.6601 4.65491C14.8763 4.53977 15.0075 4.31114 14.9996 4.06644C14.9903 3.82126 14.8428 3.6019 14.6186 3.50224Z" fill="white"/>
<path d="M14.0541 6.23831L7.49882 9.73526L0.944574 6.23831C0.6308 6.07089 0.242272 6.18967 0.0759686 6.50287C-0.0915002 6.81591 0.0272813 7.20434 0.340181 7.37132L7.19704 11.0291C7.29159 11.0795 7.39523 11.1046 7.49916 11.1046C7.60362 11.1046 7.70711 11.0799 7.80182 11.0291L14.659 7.37132C14.9712 7.20434 15.0898 6.81591 14.9233 6.50287C14.7558 6.18963 14.3669 6.07084 14.0541 6.23831Z" fill="white"/>
<path d="M14.0541 8.74656L7.49882 12.2423L0.944574 8.74656C0.6308 8.57899 0.242272 8.69792 0.0759686 9.01067C-0.0915002 9.32372 0.0272813 9.71254 0.340181 9.87928L7.19704 13.5359C7.29159 13.5867 7.39523 13.6117 7.49916 13.6117C7.60362 13.6117 7.70711 13.587 7.80182 13.5359L14.659 9.87928C14.9712 9.71254 15.0898 9.32377 14.9233 9.01067C14.7558 8.69792 14.3675 8.57894 14.0541 8.74656Z" fill="white"/>
</svg>
