<svg width="55" height="82" viewBox="0 0 55 82" fill="none" xmlns="http://www.w3.org/2000/svg">
<g opacity="0.5">
<path d="M5.33161 11.8767L2.11279 20.8231L2.67294 38.8794L4.27626 55.241L21.9006 72.5924H33.4445L50.9187 55.3339L52.8183 39.2087V39.1763L53.2242 20.8433V20.7503L50.1292 11.8767H5.33161ZM28.6488 29.6805L30.7493 31.147L33.6718 46.1633L28.6163 48.1671L28.6488 29.6805ZM38.8106 34.2699L39.0257 34.3527L45.8672 33.2761L49.1145 41.271L40.1034 54.839L35.4761 46.4098L32.651 31.9025L38.8106 34.2699ZM33.958 30.5612L38.7801 28.8039L44.4831 29.9755L45.1711 31.654L39.2145 32.5852L33.958 30.5612ZM44.7835 28.2827L38.6482 27.0223L31.5449 29.6139L28.6833 27.7778L51.3368 20.8493L44.7835 28.2827ZM27.7355 50.3689L34.2584 47.7773L38.0454 54.6754L32.6753 52.304L22.5277 52.506L17.1901 54.6593L21.2248 47.7773L27.7355 50.3689ZM37.7004 56.6449H17.8111L22.8362 54.2209L32.3648 54.0189L37.7004 56.6449ZM23.5932 29.4361L16.4554 27.0364L10.4257 28.1009L3.77903 20.3787L27.0515 27.7677L23.5932 29.4361ZM26.9237 29.6603L26.8912 48.1651L21.8174 46.1613L24.3543 30.9895L26.9237 29.6603ZM21.1659 30.432L16.2951 32.4842L10.0807 31.444L10.7342 29.7916L16.3336 28.8039L21.1659 30.432ZM16.498 34.2699L22.4892 31.751L20.0335 46.4179L15.0956 54.8269C13.1818 51.999 8.13235 44.2626 6.18604 41.273L9.42109 33.0862L16.498 34.2699ZM6.47829 13.8199C10.377 13.834 26.8912 13.8482 26.8912 13.8482L27.0211 25.877C27.0211 25.877 8.71482 20.0636 4.52183 18.6274L6.47829 13.8199ZM4.29453 38.7986L3.81759 23.447L9.09434 29.2099L4.77349 40.156L4.38586 39.7258L4.29453 38.7986ZM15.9785 64.4984L14.1235 62.6805L5.83493 54.5199L4.70652 43.0062C6.07368 44.6235 7.35731 46.3089 8.55246 48.056C10.2471 50.6436 11.5967 52.6918 12.5587 54.1401L13.9794 56.2833L16.0272 59.3132L18.6311 63.137L19.7128 68.1869L15.9785 64.4984ZM17.6569 58.3638H37.3432L35.1108 61.8988H19.8894L17.6569 58.3638ZM32.3608 70.9804H22.5683L22.4263 70.8411C21.858 68.6918 20.553 63.6177 20.553 63.6177H34.4471C34.4471 63.6177 32.9777 68.8999 32.3689 70.9865L32.3608 70.9804ZM49.3661 54.5845L41.2054 62.6461L39.186 64.6398L34.8144 68.9565C35.3929 66.779 36.3528 63.1269 36.3528 63.1269L39.1698 59.194L41.1628 56.3944C41.1628 56.3944 48.1829 45.8603 50.8253 42.2547L49.3661 54.5845ZM51.1927 39.0632L51.1785 39.1763L50.4783 39.8328L46.0945 29.3877C46.0945 29.3877 49.8045 25.2144 51.5499 23.4813L51.1927 39.0632ZM50.525 18.7627C46.4619 20.0676 28.6163 25.9659 28.6163 25.9659V13.8462C28.6163 13.8462 44.6292 13.8462 48.5929 13.8987L50.525 18.7627Z" fill="white"/>
<path d="M10.3505 29.5351L16.642 28.1211L22.7976 30.2764L17.7928 32.565L16.4391 33.2376L9.2688 31.959L10.3505 29.5351Z" fill="white"/>
<path d="M32.9453 29.8723L39.3058 27.7837L45.3254 29.131L45.8672 32.2963L39.5088 33.7769L32.4724 30.949L32.9453 29.8723Z" fill="white"/>
</g>
</svg>
