<svg width="13" height="13" viewBox="0 0 13 13" fill="none" xmlns="http://www.w3.org/2000/svg">
<path d="M7.91211 8.41138C8.30273 8.02075 8.49805 7.5494 8.49805 6.99731C8.49805 6.44523 8.30273 5.97388 7.91211 5.58325C7.52148 5.19263 7.05013 4.99731 6.49805 4.99731C5.94596 4.99731 5.47461 5.19263 5.08398 5.58325C4.69336 5.97388 4.49805 6.44523 4.49805 6.99731C4.49805 7.5494 4.69336 8.02075 5.08398 8.41138C5.47461 8.802 5.94596 8.99731 6.49805 8.99731C7.05013 8.99731 7.52148 8.802 7.91211 8.41138ZM8.67774 4.81763C9.27669 5.41659 9.57617 6.14315 9.57617 6.99731C9.57617 7.85148 9.27669 8.57804 8.67774 9.177C8.07878 9.77596 7.35221 10.0754 6.49805 10.0754C5.64388 10.0754 4.91732 9.77596 4.31836 9.177C3.7194 8.57804 3.41992 7.85148 3.41992 6.99731C3.41992 6.14315 3.7194 5.41659 4.31836 4.81763C4.91732 4.21867 5.64388 3.91919 6.49805 3.91919C7.35221 3.91919 8.07878 4.21867 8.67774 4.81763ZM10.209 3.28638C10.3496 3.427 10.4199 3.59627 10.4199 3.79419C10.4199 3.99211 10.3496 4.16138 10.209 4.302C10.0684 4.44263 9.89909 4.51294 9.70117 4.51294C9.50326 4.51294 9.33398 4.44263 9.19336 4.302C9.05273 4.16138 8.98242 3.99211 8.98242 3.79419C8.98242 3.59627 9.05273 3.427 9.19336 3.28638C9.33398 3.14575 9.50326 3.07544 9.70117 3.07544C9.89909 3.07544 10.0684 3.14575 10.209 3.28638ZM7.0918 2.07544C6.73242 2.07544 6.53451 2.07544 6.49805 2.07544C6.46159 2.07544 6.26107 2.07544 5.89648 2.07544C5.53711 2.07023 5.26367 2.07023 5.07617 2.07544C4.88867 2.07544 4.63607 2.08325 4.31836 2.09888C4.00586 2.10929 3.73763 2.13533 3.51367 2.177C3.29492 2.21346 3.11003 2.26033 2.95898 2.31763C2.69857 2.42179 2.4694 2.57283 2.27148 2.77075C2.07357 2.96867 1.92253 3.19783 1.81836 3.45825C1.76107 3.60929 1.71159 3.79679 1.66992 4.02075C1.63346 4.2395 1.60742 4.50773 1.5918 4.82544C1.58138 5.13794 1.57357 5.38794 1.56836 5.57544C1.56836 5.76294 1.56836 6.03898 1.56836 6.40356C1.57357 6.76294 1.57617 6.96086 1.57617 6.99731C1.57617 7.03377 1.57357 7.23429 1.56836 7.59888C1.56836 7.95825 1.56836 8.23169 1.56836 8.41919C1.57357 8.60669 1.58138 8.85929 1.5918 9.177C1.60742 9.4895 1.63346 9.75773 1.66992 9.98169C1.71159 10.2004 1.76107 10.3853 1.81836 10.5364C1.92253 10.7968 2.07357 11.026 2.27148 11.2239C2.4694 11.4218 2.69857 11.5728 2.95898 11.677C3.11003 11.7343 3.29492 11.7838 3.51367 11.8254C3.73763 11.8619 4.00586 11.8879 4.31836 11.9036C4.63607 11.914 4.88867 11.9218 5.07617 11.927C5.26367 11.927 5.53711 11.927 5.89648 11.927C6.26107 11.9218 6.46159 11.9192 6.49805 11.9192C6.53451 11.9192 6.73242 11.9218 7.0918 11.927C7.45638 11.927 7.73242 11.927 7.91992 11.927C8.10742 11.9218 8.35742 11.914 8.66992 11.9036C8.98763 11.8879 9.25586 11.8619 9.47461 11.8254C9.69857 11.7838 9.88607 11.7343 10.0371 11.677C10.2975 11.5728 10.5267 11.4218 10.7246 11.2239C10.9225 11.026 11.0736 10.7968 11.1777 10.5364C11.235 10.3853 11.2819 10.2004 11.3184 9.98169C11.36 9.75773 11.3861 9.4895 11.3965 9.177C11.4121 8.85929 11.4199 8.60669 11.4199 8.41919C11.4251 8.23169 11.4251 7.95825 11.4199 7.59888C11.4199 7.23429 11.4199 7.03377 11.4199 6.99731C11.4199 6.96086 11.4199 6.76294 11.4199 6.40356C11.4251 6.03898 11.4251 5.76294 11.4199 5.57544C11.4199 5.38794 11.4121 5.13794 11.3965 4.82544C11.3861 4.50773 11.36 4.2395 11.3184 4.02075C11.2819 3.79679 11.235 3.60929 11.1777 3.45825C11.0736 3.19783 10.9225 2.96867 10.7246 2.77075C10.5267 2.57283 10.2975 2.42179 10.0371 2.31763C9.88607 2.26033 9.69857 2.21346 9.47461 2.177C9.25586 2.13533 8.98763 2.10929 8.66992 2.09888C8.35742 2.08325 8.10742 2.07544 7.91992 2.07544C7.73242 2.07023 7.45638 2.07023 7.0918 2.07544ZM12.459 4.52075C12.485 4.97909 12.498 5.80461 12.498 6.99731C12.498 8.19002 12.485 9.01554 12.459 9.47388C12.4069 10.5572 12.084 11.3958 11.4902 11.9895C10.8965 12.5833 10.0579 12.9062 8.97461 12.9583C8.51628 12.9843 7.69076 12.9973 6.49805 12.9973C5.30534 12.9973 4.47982 12.9843 4.02148 12.9583C2.93815 12.9062 2.09961 12.5833 1.50586 11.9895C0.912109 11.3958 0.589193 10.5572 0.537109 9.47388C0.511068 9.01554 0.498047 8.19002 0.498047 6.99731C0.498047 5.80461 0.511068 4.97909 0.537109 4.52075C0.589193 3.43742 0.912109 2.59888 1.50586 2.00513C2.09961 1.41138 2.93815 1.08846 4.02148 1.03638C4.47982 1.01033 5.30534 0.997314 6.49805 0.997314C7.69076 0.997314 8.51628 1.01033 8.97461 1.03638C10.0579 1.08846 10.8965 1.41138 11.4902 2.00513C12.084 2.59888 12.4069 3.43742 12.459 4.52075Z" fill="white"/>
</svg>
