<svg width="13" height="13" viewBox="0 0 13 13" fill="none" xmlns="http://www.w3.org/2000/svg">
<path d="M12.8125 0.785261C12.9598 0.892404 13.0201 1.03526 12.9933 1.21383L11.279 11.4995C11.2567 11.629 11.1853 11.7295 11.0647 11.8009C11.0022 11.8366 10.933 11.8545 10.8571 11.8545C10.808 11.8545 10.7545 11.8433 10.6964 11.821L7.16741 10.3812L5.17188 12.571C5.09152 12.6647 4.98661 12.7116 4.85714 12.7116C4.79464 12.7116 4.7433 12.7027 4.70312 12.6848C4.6183 12.6536 4.55134 12.6 4.50223 12.5241C4.45313 12.4527 4.42857 12.3723 4.42857 12.283V9.25624L1.26786 7.96383C1.10268 7.90133 1.01339 7.77856 1 7.59553C0.986607 7.42142 1.05804 7.28973 1.21429 7.20044L12.3571 0.771868C12.5134 0.678118 12.6652 0.682582 12.8125 0.785261ZM10.5223 10.8232L12.0022 1.96383L2.39955 7.50178L4.64955 8.41919L10.4286 4.14017L7.22768 9.47723L10.5223 10.8232Z" fill="white"/>
</svg>
