<svg width="16" height="19" viewBox="0 0 16 19" fill="none" xmlns="http://www.w3.org/2000/svg">
<path d="M10.0366 13.0643V15.1837C10.0366 15.6324 9.90597 15.8567 9.64481 15.8567C9.49079 15.8567 9.34012 15.783 9.1928 15.6357V12.6123C9.34012 12.4649 9.49079 12.3913 9.64481 12.3913C9.90597 12.3913 10.0366 12.6156 10.0366 13.0643ZM13.4316 13.0743V13.5364H12.5276V13.0743C12.5276 12.619 12.6783 12.3913 12.9796 12.3913C13.281 12.3913 13.4316 12.619 13.4316 13.0743ZM3.72852 10.8846H4.80329V9.94039H1.66936V10.8846H2.72405V16.6H3.72852V10.8846ZM6.62137 16.6H7.51535V11.6379H6.62137V15.4348C6.42048 15.7161 6.22963 15.8567 6.04883 15.8567C5.92829 15.8567 5.85798 15.7864 5.83789 15.6458C5.83119 15.6257 5.82785 15.5085 5.82785 15.2942V11.6379H4.93387V15.5654C4.93387 15.8935 4.96066 16.1379 5.01423 16.2987C5.09459 16.5464 5.28878 16.6703 5.59682 16.6703C5.91825 16.6703 6.25977 16.4661 6.62137 16.0576V16.6ZM10.9305 15.1134V13.1346C10.9305 12.6458 10.9004 12.3143 10.8401 12.1402C10.7263 11.7652 10.4886 11.5777 10.127 11.5777C9.79213 11.5777 9.48075 11.7585 9.1928 12.1201V9.94039H8.29883V16.6H9.1928V16.1179C9.49414 16.4862 9.80553 16.6703 10.127 16.6703C10.4886 16.6703 10.7263 16.4862 10.8401 16.1179C10.9004 15.937 10.9305 15.6022 10.9305 15.1134ZM14.3256 15.0129V14.8824H13.4116C13.4116 15.2239 13.4049 15.4281 13.3915 15.4951C13.3446 15.7362 13.2107 15.8567 12.9897 15.8567C12.6816 15.8567 12.5276 15.6257 12.5276 15.1636V14.2897H14.3256V13.2551C14.3256 12.7261 14.2352 12.3377 14.0544 12.0899C13.7932 11.7484 13.4383 11.5777 12.9897 11.5777C12.5343 11.5777 12.1761 11.7484 11.9149 12.0899C11.7274 12.3377 11.6336 12.7261 11.6336 13.2551V14.9929C11.6336 15.5219 11.7307 15.9103 11.9249 16.158C12.1861 16.4995 12.5477 16.6703 13.0098 16.6703C13.4919 16.6703 13.8535 16.4929 14.0946 16.1379C14.2151 15.9571 14.2854 15.7763 14.3055 15.5955C14.3189 15.5353 14.3256 15.3411 14.3256 15.0129ZM8.21847 5.84218V3.73281C8.21847 3.27075 8.0745 3.03972 7.78655 3.03972C7.49861 3.03972 7.35463 3.27075 7.35463 3.73281V5.84218C7.35463 6.31093 7.49861 6.54531 7.78655 6.54531C8.0745 6.54531 8.21847 6.31093 8.21847 5.84218ZM15.4406 13.3857C15.4406 14.9527 15.3535 16.1245 15.1794 16.9013C15.0857 17.2964 14.8915 17.6279 14.5968 17.8958C14.3022 18.1636 13.9607 18.3176 13.5723 18.3578C12.3401 18.4984 10.4819 18.5687 7.99749 18.5687C5.51311 18.5687 3.65486 18.4984 2.42271 18.3578C2.03432 18.3176 1.68945 18.1636 1.38811 17.8958C1.09347 17.6279 0.902623 17.2964 0.815569 16.9013C0.641462 16.1513 0.554408 14.9795 0.554408 13.3857C0.554408 11.8187 0.641462 10.6469 0.815569 9.87008C0.909319 9.47499 1.10352 9.14352 1.39816 8.87566C1.6928 8.60781 2.03767 8.45044 2.43276 8.40356C3.6582 8.26964 5.51311 8.20267 7.99749 8.20267C10.4819 8.20267 12.3401 8.26964 13.5723 8.40356C13.9607 8.45044 14.3022 8.60781 14.5968 8.87566C14.8982 9.14352 15.0924 9.47499 15.1794 9.87008C15.3535 10.6201 15.4406 11.792 15.4406 13.3857ZM5.41602 0.568742H6.44057L5.22517 4.57656V7.29865H4.2207V4.57656C4.12695 4.08102 3.92271 3.3712 3.60798 2.44709C3.36021 1.75736 3.14258 1.13124 2.95508 0.568742H4.01981L4.73298 3.21048L5.41602 0.568742ZM9.13253 3.91361V5.67142C9.13253 6.21383 9.03878 6.60892 8.85128 6.85669C8.59682 7.19821 8.24191 7.36897 7.78655 7.36897C7.33789 7.36897 6.98633 7.19821 6.73186 6.85669C6.54436 6.60223 6.45061 6.20714 6.45061 5.67142V3.91361C6.45061 3.37789 6.54436 2.98615 6.73186 2.73838C6.98633 2.39687 7.33789 2.22611 7.78655 2.22611C8.24191 2.22611 8.59682 2.39687 8.85128 2.73838C9.03878 2.98615 9.13253 3.37789 9.13253 3.91361ZM12.4975 2.28638V7.29865H11.5834V6.7462C11.2285 7.16138 10.8837 7.36897 10.5488 7.36897C10.2408 7.36897 10.0432 7.24508 9.9562 6.99731C9.90262 6.8366 9.87584 6.58548 9.87584 6.24397V2.28638H10.7899V5.97276C10.7899 6.19374 10.7932 6.31093 10.7999 6.32432C10.82 6.47164 10.8903 6.54531 11.0109 6.54531C11.1917 6.54531 11.3825 6.40133 11.5834 6.11338V2.28638H12.4975Z" fill="white"/>
</svg>
