<svg width="50" height="50" viewBox="0 0 50 50" fill="none" xmlns="http://www.w3.org/2000/svg">
<g clip-path="url(#clip0)">
<path d="M20.5429 44.3248L20.396 45.0423L20.5376 44.324C20.1408 44.2458 19.7556 44.5041 19.6774 44.9008C19.5991 45.2979 19.8574 45.6828 20.2545 45.761C20.2557 45.7614 20.2667 45.7633 20.2679 45.7637C20.3144 45.7725 20.3606 45.777 20.4063 45.777C20.7508 45.777 21.0579 45.5329 21.1246 45.1819C21.2009 44.7845 20.9404 44.4007 20.5429 44.3248Z" fill="#FFD300"/>
<path d="M26.1428 44.5602L26.2157 45.2888L26.1406 44.5606C25.7381 44.6018 25.4455 44.9615 25.4871 45.364C25.5256 45.7409 25.8438 46.0216 26.2146 46.0216C26.2397 46.0216 26.2653 46.0201 26.2905 46.0178L26.3107 46.0155C26.7112 45.9686 26.9954 45.6073 26.9508 45.2068C26.9058 44.8066 26.5434 44.5182 26.1428 44.5602Z" fill="#FFD300"/>
<path d="M23.339 44.6525C23.339 44.6525 23.3287 44.6521 23.3283 44.6521C22.9247 44.6338 22.5875 44.9474 22.5692 45.3514C22.5513 45.7553 22.8687 46.0975 23.2726 46.1158C23.2841 46.1166 23.2951 46.1166 23.3066 46.1166C23.6957 46.1166 24.0199 45.8103 24.0375 45.4174C24.0558 45.0134 23.7434 44.6708 23.339 44.6525Z" fill="#FFD300"/>
<path d="M17.8375 43.5807L17.8283 43.5772C17.4476 43.4407 17.0326 43.6398 16.896 44.0205C16.759 44.4012 16.9612 44.8224 17.3419 44.9593C17.4239 44.9887 17.5075 45.0024 17.5895 45.0024C17.8897 45.0024 18.1716 44.8166 18.2788 44.5176C18.4158 44.1369 18.2182 43.7172 17.8375 43.5807Z" fill="#FFD300"/>
<path d="M28.9069 44.0475L29.0873 44.7574L28.9046 44.0483C28.5128 44.149 28.2771 44.5484 28.3778 44.9402C28.4629 45.2705 28.7604 45.4902 29.0866 45.4902C29.1472 45.4902 29.2087 45.4826 29.2701 45.4666C29.2731 45.4658 29.2861 45.4624 29.2895 45.4616C29.6782 45.3556 29.9056 44.9562 29.8018 44.5667C29.6981 44.1776 29.2972 43.9461 28.9069 44.0475Z" fill="#FFD300"/>
<path d="M31.5547 43.124L31.845 43.7962L31.5524 43.1248C31.1816 43.2865 31.0119 43.718 31.1733 44.0888C31.2934 44.3646 31.5627 44.529 31.8454 44.529C31.9427 44.529 32.0422 44.5091 32.1372 44.4679C32.1403 44.4664 32.1521 44.4615 32.1551 44.4599C32.5225 44.294 32.6846 43.8637 32.5206 43.4956C32.3566 43.1271 31.924 42.9619 31.5547 43.124Z" fill="#FFD300"/>
<path d="M15.0398 9.73614C15.1573 9.73614 15.2767 9.70791 15.387 9.64917C15.744 9.45881 15.8787 9.01516 15.6883 8.65811C15.498 8.30143 15.0547 8.16601 14.6977 8.35675L14.6889 8.36132C14.3322 8.55168 14.2014 8.99304 14.3917 9.35009C14.5229 9.59652 14.7778 9.73614 15.0398 9.73614Z" fill="#FFD300"/>
<path d="M6.56773 17.917C6.67645 17.9738 6.7928 18.0009 6.90762 18.0009C7.17121 18.0009 7.42604 17.8582 7.55688 17.6084L7.56985 17.5828C7.74838 17.2197 7.59884 16.7806 7.23568 16.6024C6.87519 16.4247 6.43955 16.5712 6.25874 16.9294C6.07182 17.2872 6.20991 17.7293 6.56773 17.917Z" fill="#FFD300"/>
<path d="M5.53666 20.6723C5.61448 20.6986 5.69345 20.7112 5.77165 20.7112C6.07682 20.7112 6.36178 20.5186 6.46516 20.2134L6.4747 20.1844C6.59371 19.798 6.37666 19.3879 5.98985 19.2692C5.60647 19.151 5.19944 19.3638 5.07699 19.7453C4.94843 20.1279 5.15405 20.543 5.53666 20.6723Z" fill="#FFD300"/>
<path d="M8.01273 15.3546C8.14281 15.4492 8.2935 15.4949 8.44303 15.4949C8.66924 15.4949 8.89278 15.39 9.03583 15.1932L9.04537 15.1802C9.28036 14.8514 9.20368 14.3952 8.87562 14.1602C8.54717 13.9248 8.08941 14.0003 7.85366 14.3284L8.44379 14.7625L7.85137 14.3315C7.61334 14.6588 7.68581 15.1169 8.01273 15.3546Z" fill="#FFD300"/>
<path d="M12.5533 11.3181C12.7071 11.3181 12.8619 11.2697 12.9943 11.169C13.3209 10.9302 13.3914 10.472 13.1526 10.1455C12.9134 9.81895 12.4553 9.74838 12.1291 9.98718L12.1108 10.0005C11.7889 10.2451 11.7248 10.7055 11.9693 11.0278C12.1135 11.2178 12.3321 11.3181 12.5533 11.3181Z" fill="#FFD300"/>
<path d="M4.88276 31.7798C4.97965 32.0945 5.26881 32.2963 5.58161 32.2963C5.65295 32.2963 5.72581 32.2857 5.79752 32.2635C6.18204 32.1457 6.3991 31.7382 6.2839 31.353C6.17365 30.9684 5.77502 30.7426 5.38706 30.8483C4.99682 30.9547 4.76679 31.3575 4.87322 31.7478C4.87551 31.7554 4.88047 31.7722 4.88276 31.7798Z" fill="#FFD300"/>
<path d="M10.3408 13.2485C10.5311 13.2485 10.7215 13.1748 10.8653 13.0283C11.151 12.7422 11.151 12.2784 10.8653 11.9927C10.5792 11.7066 10.1153 11.7066 9.82924 11.9927L9.81704 12.0049C9.53399 12.2936 9.53971 12.7567 9.82848 13.0398C9.97077 13.1794 10.1558 13.2485 10.3408 13.2485Z" fill="#FFD300"/>
<path d="M5.6923 28.5865C5.6408 28.1886 5.27726 27.9064 4.879 27.9537C4.4777 28.0017 4.19083 28.366 4.23852 28.7677L4.24271 28.7971C4.29612 29.161 4.60854 29.4219 4.96598 29.4219C5.00107 29.4219 5.03693 29.4193 5.07317 29.4139C5.47181 29.3559 5.74837 28.9852 5.6923 28.5865Z" fill="#FFD300"/>
<path d="M4.77214 26.4888C4.77977 26.4888 4.78702 26.4892 4.79427 26.4892C5.18871 26.4892 5.51448 26.1752 5.52593 25.7781L5.52669 25.7468C5.52669 25.3421 5.19863 25.0144 4.79427 25.0144C4.39258 25.0144 4.06681 25.3371 4.06185 25.7373C4.05116 26.1409 4.36893 26.477 4.77214 26.4888Z" fill="#FFD300"/>
<path d="M4.93276 23.5514C4.97663 23.5591 5.01974 23.5629 5.06285 23.5629C5.41075 23.5629 5.71936 23.3138 5.78306 22.9594C5.78497 22.9487 5.78649 22.938 5.78802 22.9273C5.84715 22.5272 5.57058 22.1549 5.17004 22.0961C4.77445 22.0374 4.40405 22.3094 4.34034 22.7038C4.27091 23.1013 4.53565 23.4801 4.93276 23.5514Z" fill="#FFD300"/>
<path d="M39.4824 15.5858C39.6243 15.7918 39.8524 15.902 40.0851 15.902C40.2282 15.902 40.3731 15.8601 40.4998 15.7727C40.8328 15.5438 40.9171 15.0876 40.6882 14.7542L40.0794 15.1616L40.686 14.7508C40.4586 14.4158 40.0031 14.3285 39.6686 14.5555C39.3336 14.7824 39.2463 15.2379 39.4732 15.5728L39.4824 15.5858Z" fill="#FFD300"/>
<path d="M43.2228 22.9561C42.8207 23.0011 42.5316 23.3638 42.577 23.7659L42.5808 23.7976C42.633 24.1626 42.9466 24.4262 43.3052 24.4262C43.3395 24.4262 43.3746 24.424 43.4097 24.419C43.8068 24.3622 44.0838 23.9963 44.0323 23.5996C43.9861 23.1987 43.6222 22.911 43.2228 22.9561Z" fill="#FFD300"/>
<path d="M41.9868 20.8895L41.9898 20.899C42.0837 21.2183 42.3755 21.4251 42.6921 21.4251C42.7604 21.4251 42.8298 21.4155 42.8989 21.3949C43.2872 21.2809 43.5092 20.8738 43.3952 20.4855L43.3921 20.476C43.278 20.0876 42.871 19.8656 42.4827 19.98C42.0947 20.0941 41.8727 20.5011 41.9868 20.8895Z" fill="#FFD300"/>
<path d="M40.9522 18.1508C41.08 18.4105 41.3413 18.562 41.6129 18.562C41.7209 18.562 41.8308 18.538 41.9341 18.4868C42.2969 18.3083 42.4476 17.8719 42.2687 17.5088L41.6049 17.8181L42.2679 17.5072C42.0963 17.141 41.6602 16.9835 41.294 17.1551C40.9278 17.3268 40.7699 17.7628 40.9416 18.129L40.9522 18.1508Z" fill="#FFD300"/>
<path d="M37.6376 13.2984C37.781 13.4449 37.9706 13.5181 38.1606 13.5181C38.3456 13.5181 38.5306 13.4487 38.6733 13.3087C38.9602 13.0279 38.9666 12.569 38.6901 12.2799C38.4158 11.9842 37.9535 11.9663 37.6567 12.2402C37.3595 12.5145 37.3412 12.9779 37.6155 13.2751L37.6376 13.2984Z" fill="#FFD300"/>
<path d="M43.4607 26.0142C43.0583 26.0039 42.7214 26.3193 42.7073 26.7218C42.689 27.1227 42.9969 27.4641 43.3982 27.4866C43.4123 27.4874 43.4256 27.4878 43.4397 27.4878C43.8254 27.4878 44.1485 27.186 44.1703 26.7958L44.1714 26.7657C44.1828 26.3617 43.8647 26.026 43.4607 26.0142Z" fill="#FFD300"/>
<path d="M32.954 9.70189L32.9716 9.71143C33.0807 9.76941 33.1978 9.79688 33.313 9.79688C33.5735 9.79688 33.8257 9.6565 33.958 9.41045C34.1488 9.0553 34.0145 8.61127 33.6605 8.41901L33.3061 9.05988L33.6582 8.41749C33.3034 8.22294 32.8583 8.35302 32.6637 8.70778C32.4695 9.06217 32.5992 9.50773 32.954 9.70189Z" fill="#FFD300"/>
<path d="M35.4313 11.3082L35.4428 11.317C35.5751 11.4173 35.7304 11.4658 35.8849 11.4658C36.1061 11.4658 36.3247 11.3658 36.4689 11.1759C36.7134 10.8535 36.6501 10.3942 36.3281 10.1497L36.3232 10.1463C36.0024 9.89984 35.5427 9.96011 35.2963 10.2809C35.0498 10.6017 35.1105 11.0618 35.4313 11.3082Z" fill="#FFD300"/>
<path d="M49.548 37.1025L46.1098 33.6582C45.8172 33.3652 45.4285 33.2039 45.0146 33.2039C44.6011 33.2039 44.212 33.3652 43.9198 33.6582L43.84 33.7379L43.6142 33.5121C43.3353 33.2325 43.1194 32.9071 42.9729 32.5527C42.96 32.5058 42.9428 32.46 42.9207 32.4169C42.8085 32.1018 42.7502 31.7665 42.7502 31.422V30.4478C42.8169 30.4829 42.8898 30.5084 42.968 30.5218C43.0099 30.529 43.0515 30.5325 43.0927 30.5325C43.4402 30.5325 43.7477 30.2845 43.8122 29.932C43.8904 29.5361 43.6337 29.1512 43.2373 29.0718C43.063 29.0371 42.8905 29.0672 42.7456 29.1458C42.7006 28.1052 42.2752 27.1332 41.5352 26.3916L38.1996 23.0503C37.4512 22.3007 36.4559 21.888 35.3973 21.888C34.5779 21.888 33.7975 22.1363 33.139 22.596L32.785 22.2401V13.863C32.785 12.8532 32.4184 11.879 31.7532 11.1202C31.2798 10.5808 31.0192 9.88808 31.0192 9.16939V8.5556H31.0696C31.9233 8.5556 32.618 7.86095 32.618 7.00684V2.1347C32.618 1.28059 31.9233 0.585938 31.0696 0.585938H17.3882C16.5344 0.585938 15.8398 1.28059 15.8398 2.1347V7.00684C15.8398 7.86095 16.5344 8.5556 17.3882 8.5556H17.5011V8.8768C17.5011 9.66644 17.194 10.4088 16.6367 10.9669L15.16 12.4462C14.3764 13.2313 13.945 14.2746 13.945 15.3847V20.1099C13.945 20.752 14.0991 21.3581 14.3703 21.8952C13.3991 21.9513 12.4939 22.356 11.8004 23.0503L8.46481 26.3916C7.68127 27.1767 7.24983 28.2204 7.24983 29.3301V31.422C7.24983 32.2117 6.94313 32.954 6.3858 33.5121L6.16264 33.7357C6.1615 33.7364 6.16074 33.7372 6.15997 33.7379L6.08063 33.6582C5.78804 33.3652 5.39932 33.2039 4.98543 33.2039C4.57191 33.2039 4.18282 33.3652 3.89061 33.6582L0.452042 37.1025C-0.150681 37.7064 -0.150681 38.689 0.452042 39.2929L1.62964 40.472C1.91536 40.7585 2.37923 40.7589 2.66533 40.4732C2.95143 40.1871 2.95219 39.7236 2.66609 39.4371L1.48888 38.2576C1.45569 38.2244 1.45569 38.1706 1.48888 38.1374L4.92744 34.6931C4.95949 34.6611 5.01175 34.6607 5.04379 34.6931L5.64156 35.292H5.64194L13.8042 43.4685L14.7186 44.3848C14.7518 44.4179 14.7518 44.4717 14.7186 44.5049L11.2804 47.9492C11.248 47.9816 11.1958 47.9816 11.1637 47.9492L4.73976 41.5142C4.45404 41.2277 3.99017 41.2273 3.70407 41.5131C3.41759 41.7992 3.41721 42.2626 3.70293 42.5491L10.1273 48.9841C10.4195 49.2771 10.8086 49.4385 11.2225 49.4385C11.636 49.4385 12.0247 49.2771 12.3173 48.9841L15.7555 45.5399C16.3582 44.9364 16.3582 43.9537 15.7555 43.3498L15.7181 43.3125L16.1518 42.878C16.6584 42.3702 17.3313 42.065 18.0466 42.0189C19.0533 41.9537 20.0005 41.5241 20.7134 40.8096L23.872 37.6442C24.7829 37.405 25.4921 36.6631 25.6847 35.7338C26.0094 35.8883 26.3721 35.9753 26.7551 35.9753C28.1326 35.9753 29.2534 34.8534 29.2534 33.474V31.7348C29.5685 31.8787 29.9183 31.9595 30.2868 31.9595C31.6643 31.9595 32.7847 30.8376 32.7847 29.4582V24.3168L35.0376 26.5808C35.1807 26.7246 35.3687 26.7963 35.5568 26.7963C35.7437 26.7963 35.9306 26.7254 36.0737 26.5831C36.3602 26.2978 36.3613 25.8343 36.076 25.5474L34.1976 23.6599C34.5612 23.4596 34.9709 23.3528 35.3973 23.3528C36.0641 23.3528 36.6913 23.613 37.1628 24.0856L40.4984 27.4265C41.0057 27.935 41.2853 28.611 41.2853 29.3301V31.422C41.2853 32.6027 41.7442 33.7124 42.5774 34.547L42.8047 34.7748L41.7423 35.8391L35.3168 42.2756L34.9586 41.9167C34.9548 41.9132 34.9514 41.9094 34.9476 41.906L34.8846 41.8426C34.1263 41.0831 33.1188 40.6265 32.0484 40.5571C31.3972 40.5148 30.7846 40.237 30.3211 39.7732L27.9144 37.3795C27.6276 37.0941 27.1637 37.0953 26.8784 37.3821C26.5934 37.669 26.5945 38.1329 26.8814 38.4178L29.2866 40.8096C29.9995 41.5241 30.9467 41.9537 31.9538 42.0189C32.6687 42.065 33.3416 42.3702 33.8482 42.8776L33.8837 42.9131C33.9027 42.9348 33.923 42.955 33.9443 42.9741L34.2819 43.3121L34.2445 43.3498C33.6418 43.9537 33.6418 44.936 34.2445 45.5399L37.6827 48.9841C37.9753 49.2771 38.364 49.4385 38.7779 49.4385C39.1914 49.4385 39.5805 49.2771 39.8731 48.9841L49.548 39.2925C50.1507 38.6887 50.1507 37.7064 49.548 37.1025ZM43.2411 29.8195L43.2274 29.8172L43.0939 29.7901L43.2411 29.8195ZM19.6766 39.7747C19.2154 40.237 18.6028 40.5148 17.952 40.5571C16.8812 40.6265 15.8737 41.0831 15.1154 41.8426L14.6832 42.2756L14.2941 41.8858C14.2891 41.8808 14.2841 41.8755 14.2792 41.8709L7.19528 34.7748L7.42264 34.547C8.25577 33.7124 8.71468 32.6027 8.71468 31.422V29.3301C8.71468 28.611 8.99391 27.935 9.50165 27.4265L12.8372 24.0856C13.3087 23.613 13.9359 23.3528 14.6027 23.3528C15.0303 23.3528 15.4415 23.4604 15.8062 23.6622L13.9248 25.5466C13.6391 25.8327 13.6395 26.2966 13.9256 26.5823C14.0686 26.725 14.2559 26.7963 14.4432 26.7963C14.6309 26.7963 14.8186 26.7246 14.9616 26.5816L17.2089 24.3301V33.474C17.2089 34.8534 18.3296 35.9753 19.7071 35.9753C20.0954 35.9753 20.4632 35.886 20.7912 35.7273C20.94 36.4532 21.4039 37.0651 22.0325 37.4138L19.6766 39.7747ZM31.3202 29.4586C31.3202 30.0301 30.8563 30.4951 30.2868 30.4951C29.7169 30.4951 29.2534 30.0301 29.2534 29.4586V21.2887C29.2534 20.8843 28.9257 20.5563 28.521 20.5563C28.1162 20.5563 27.7885 20.8843 27.7885 21.2887V33.4743C27.7885 34.0458 27.3251 34.5104 26.7551 34.5104C26.2436 34.5104 25.819 34.1358 25.737 33.6456V21.2803C25.737 20.8755 25.4093 20.5479 25.0046 20.5479C24.8745 20.5479 24.752 20.5822 24.646 20.6417C24.4144 20.7649 24.2569 21.0083 24.2569 21.2887V33.474C24.2569 33.567 24.2622 33.6582 24.2722 33.7486V35.2245C24.2722 35.796 23.8087 36.261 23.2388 36.261C22.6692 36.261 22.2057 35.796 22.2057 35.2245V21.2715C22.2057 20.8672 21.8777 20.5391 21.4733 20.5391C21.0686 20.5391 20.7405 20.8672 20.7405 21.2715V33.474C20.7405 34.0454 20.277 34.5104 19.7075 34.5104C19.1376 34.5104 18.6741 34.0454 18.6741 33.474V19.8498C18.6741 19.445 18.346 19.117 17.9417 19.117C17.5369 19.117 17.2092 19.445 17.2092 19.8498V22.3698C17.1478 22.3896 17.0883 22.4174 17.033 22.4541C16.0858 22.0982 15.4099 21.1819 15.4099 20.1099V15.3847C15.4099 14.6656 15.6895 13.9896 16.1968 13.4811L17.6735 12.0018C18.507 11.1671 18.9659 10.0574 18.9659 8.8768V8.5556H20.4384C20.8431 8.5556 21.1708 8.22754 21.1708 7.82318C21.1708 7.41844 20.8431 7.09076 20.4384 7.09076H17.3882C17.342 7.09076 17.3046 7.05299 17.3046 7.00684V2.1347C17.3046 2.08855 17.342 2.05078 17.3882 2.05078H31.0692C31.1157 2.05078 31.1531 2.08855 31.1531 2.1347V7.00684C31.1531 7.05337 31.1157 7.09076 31.0692 7.09076H23.877C23.4726 7.09076 23.1445 7.41844 23.1445 7.82318C23.1445 8.22754 23.4726 8.5556 23.877 8.5556H29.5544V9.16939C29.5544 10.2436 29.9438 11.2793 30.6515 12.0865C31.0825 12.5778 31.3202 13.2088 31.3202 13.863V29.4586ZM48.5111 38.2576L38.8363 47.9492C38.8203 47.9656 38.8008 47.9736 38.7779 47.9736C38.7554 47.9736 38.736 47.9656 38.7196 47.9492L35.2814 44.5049C35.2482 44.4717 35.2482 44.4179 35.2814 44.3848L35.8349 43.8301L35.8353 43.8297L41.4516 38.2038L44.9562 34.6931C44.9883 34.6607 45.0405 34.6607 45.0726 34.6931L48.5111 38.1374C48.5443 38.1706 48.5443 38.2244 48.5111 38.2576Z" fill="#FFD300"/>
<path d="M19.7071 3.78955C19.2772 3.78955 18.9274 4.14012 18.9274 4.5708C18.9274 5.00186 19.2772 5.35205 19.7071 5.35205C20.1374 5.35205 20.4872 5.00186 20.4872 4.5708C20.4872 4.14012 20.1374 3.78955 19.7071 3.78955Z" fill="#FFD300"/>
<path d="M45.254 37.1765C44.8237 37.1765 44.4739 37.5271 44.4739 37.9578C44.4739 38.3884 44.8237 38.739 45.254 38.739C45.6839 38.739 46.0337 38.3884 46.0337 37.9578C46.0337 37.5271 45.6839 37.1765 45.254 37.1765Z" fill="#FFD300"/>
<path d="M12.2055 44.6487C12.2055 44.218 11.8557 43.8674 11.4258 43.8674C10.9955 43.8674 10.6457 44.218 10.6457 44.6487C10.6457 45.0794 10.9955 45.4299 11.4258 45.4299C11.8557 45.4299 12.2055 45.0794 12.2055 44.6487Z" fill="#FFD300"/>
</g>
<defs>
<clipPath id="clip0">
<rect width="50" height="50" fill="white"/>
</clipPath>
</defs>
</svg>
