<svg width="50" height="50" viewBox="0 0 50 50" fill="none" xmlns="http://www.w3.org/2000/svg">
<path d="M26.2365 23.7646C25.8546 23.3828 25.2365 23.3828 24.8546 23.7646C24.4738 24.1455 24.4738 24.7637 24.8546 25.1455C25.2365 25.5264 25.8546 25.5264 26.2365 25.1455C26.6173 24.7637 26.6173 24.1455 26.2365 23.7646Z" fill="#FFD300"/>
<path d="M38.6652 11.3349C36.757 9.42682 33.668 9.42672 31.7597 11.3349C29.8565 13.2381 29.8564 16.3358 31.76 18.2406C33.6639 20.1433 36.7615 20.1441 38.6652 18.2404C40.5732 16.3324 40.5736 13.2432 38.6652 11.3349ZM37.2842 16.8592C36.1423 18.0012 34.2835 18.0012 33.141 16.8594C31.9989 15.7167 31.9988 13.8579 33.1408 12.716C34.2857 11.5712 36.1392 11.571 37.2842 12.716C38.429 13.8607 38.4292 15.7143 37.2842 16.8592Z" fill="#FFD300"/>
<path d="M49.7138 0.286044C49.522 0.0943453 49.2603 -0.00956072 48.9882 0.000693163C48.7674 0.0086033 43.5101 0.219931 37.2606 2.42881C32.2528 4.19697 28.0787 6.72851 24.8542 9.95312C24.1316 10.6757 23.4285 11.4419 22.7557 12.2379C19.5674 10.3611 17.0126 10.9496 15.3974 11.814C11.6786 13.8042 9.37674 19.2081 9.37674 23.0733C9.37703 23.4682 9.61502 23.8244 9.97986 23.9755C10.1007 24.0255 10.2276 24.0499 10.3534 24.0499C10.6076 24.0499 10.8573 23.9505 11.0441 23.7638C13.0053 21.8026 15.4244 21.9253 16.2146 22.0292L16.5566 22.3712C15.8836 23.9727 15.3414 25.5653 14.9437 27.1142C14.8002 27.6748 14.8486 28.2679 15.062 28.8105C14.1217 29.2438 13.2146 29.88 12.4248 30.6699C9.91102 33.1837 9.40057 39.3101 9.38006 39.5697C9.3576 39.8545 9.46092 40.135 9.66297 40.337C9.84686 40.5208 10.0956 40.6231 10.3534 40.6231C10.379 40.6231 10.4047 40.6221 10.4304 40.62C10.6899 40.5996 16.8165 40.0892 19.3302 37.5754C20.1198 36.7859 20.7559 35.8788 21.1892 34.9388C21.7636 35.1647 22.3548 35.1925 22.8865 35.0563C24.4347 34.6587 26.0271 34.1167 27.6289 33.4436L27.9708 33.7856C28.0747 34.5759 28.1973 36.995 26.2362 38.956C25.957 39.2353 25.8734 39.6553 26.0246 40.0201C26.1756 40.3851 26.5317 40.623 26.9267 40.623C30.7919 40.623 36.1957 38.3211 38.186 34.6023C39.0503 32.9874 39.6388 30.4325 37.762 27.2441C38.5576 26.5716 39.3239 25.8685 40.0468 25.1457C43.2714 21.9211 45.8028 17.7469 47.571 12.7395C49.78 6.48974 49.9912 1.23233 49.9991 1.01163C50.0089 0.740633 49.9055 0.477841 49.7138 0.286044ZM11.5601 20.9728C12.1668 18.037 13.9288 14.8154 16.3194 13.5359C17.917 12.681 19.6631 12.7648 21.5198 13.7811C19.938 15.8614 18.563 18.1026 17.4168 20.4693C17.4022 20.4603 17.2264 20.2393 16.8999 20.1657C16.7656 20.1353 14.1817 19.5796 11.5601 20.9728ZM17.9492 36.1943C16.6064 37.537 13.4565 38.2452 11.4656 38.5344C11.7549 36.5434 12.4632 33.3936 13.8058 32.0509C14.5578 31.299 15.4297 30.7289 16.306 30.4078L19.5923 33.6941C19.2713 34.5705 18.7012 35.4423 17.9492 36.1943ZM22.4013 33.1643C22.1187 33.2367 21.7914 33.1304 21.548 32.8874C20.2846 31.6241 19.7904 31.1298 19.6353 30.9749C19.3509 30.6905 18.6536 29.9931 17.1132 28.4527C16.8697 28.2086 16.7634 27.8814 16.8356 27.5993C17.1484 26.3811 17.5575 25.1313 18.0549 23.8695L26.1306 31.9452C24.8686 32.4427 23.619 32.8517 22.4013 33.1643ZM36.4642 33.6807C35.1847 36.0712 31.9632 37.8333 29.0275 38.4399C29.9635 36.6785 30.1699 34.4362 29.8279 33.0765C29.7485 32.7607 29.5424 32.6019 29.5309 32.5832C31.8974 31.4371 34.1385 30.062 36.219 28.4802C37.2353 30.3371 37.319 32.0834 36.4642 33.6807ZM38.6659 23.7646C37.786 24.6445 36.8384 25.4946 35.8495 26.2912C33.4724 28.2052 30.856 29.8265 28.0646 31.1171L18.883 21.9357C20.1736 19.1441 21.7949 16.5277 23.7087 14.1509C24.506 13.1613 25.356 12.2137 26.2356 11.3342C29.1287 8.44101 32.8624 6.13847 37.3363 4.48106L45.5191 12.6639C43.8618 17.1376 41.5593 20.8714 38.6659 23.7646ZM46.2217 10.6042L39.3959 3.77842C43.1148 2.62334 46.35 2.19083 47.9648 2.03536C47.8093 3.65049 47.3767 6.88574 46.2217 10.6042Z" fill="#FFD300"/>
<path d="M23.4737 40.3367C23.0921 39.9553 22.4738 39.9555 22.0925 40.3369L19.3308 43.0996C18.9496 43.481 18.9497 44.0994 19.331 44.4806C19.7126 44.8619 20.3309 44.8619 20.7122 44.4804L23.4739 41.7177C23.8551 41.3363 23.855 40.7179 23.4737 40.3367Z" fill="#FFD300"/>
<path d="M9.66345 26.5263C9.2822 26.1449 8.66394 26.1449 8.2824 26.5261L5.51971 29.2879C5.13826 29.6691 5.13817 30.2875 5.51942 30.6689C5.90057 31.0502 6.51883 31.0505 6.90047 30.6691L9.66316 27.9074C10.0446 27.5261 10.0447 26.9078 9.66345 26.5263Z" fill="#FFD300"/>
<path d="M16.5686 41.7186C16.1874 41.3373 15.569 41.3373 15.1875 41.7185L8.57232 48.3328C8.19088 48.7141 8.19088 49.3325 8.57222 49.7138C8.95337 50.0952 9.57183 50.0954 9.95327 49.7139L16.5685 43.0997C16.9499 42.7183 16.9499 42.1 16.5686 41.7186Z" fill="#FFD300"/>
<path d="M8.75613 41.7186C8.37488 41.3373 7.75642 41.3373 7.37507 41.7185L0.759851 48.3328C0.378406 48.7141 0.378406 49.3325 0.759753 49.7138C1.1409 50.0952 1.75936 50.0954 2.14081 49.7139L8.75603 43.0997C9.13747 42.7183 9.13747 42.1 8.75613 41.7186Z" fill="#FFD300"/>
<path d="M8.28142 33.4314C7.90017 33.0502 7.28171 33.0502 6.90037 33.4315L0.28612 40.0467C-0.0952269 40.4282 -0.0952269 41.0464 0.286218 41.4279C0.667565 41.8092 1.28592 41.8092 1.66727 41.4278L8.28152 34.8126C8.66286 34.4311 8.66286 33.8129 8.28142 33.4314Z" fill="#FFD300"/>
<path d="M30.3791 19.621C29.9977 19.2396 29.3795 19.2396 28.998 19.621L27.6171 21.0018C27.2358 21.3832 27.2358 22.0015 27.6171 22.383C27.9986 22.7643 28.6168 22.7643 28.9983 22.383L30.3791 21.0021C30.7605 20.6208 30.7605 20.0024 30.3791 19.621Z" fill="#FFD300"/>
</svg>
