<svg width="50" height="50" viewBox="0 0 50 50" fill="none" xmlns="http://www.w3.org/2000/svg">
<path d="M13.0528 17.9802L16.2345 14.7985L16.2356 14.7973C16.381 14.6495 16.4621 14.4502 16.4613 14.2429C16.4605 14.0356 16.3777 13.837 16.2311 13.6904C16.0845 13.5438 15.8859 13.461 15.6786 13.4602C15.4712 13.4593 15.272 13.5405 15.1242 13.6859L15.1242 13.6859L15.123 13.687L11.9413 16.8688L8.58156 13.509C8.58156 13.509 8.58155 13.509 8.58155 13.509C8.50857 13.436 8.42194 13.3781 8.32659 13.3386C8.23123 13.2991 8.12903 13.2788 8.02582 13.2788C7.92261 13.2788 7.8204 13.2991 7.72504 13.3386C7.62969 13.3781 7.54304 13.4359 7.47005 13.5089C7.39707 13.5819 7.33917 13.6685 7.29967 13.7639C7.26016 13.8593 7.23983 13.9615 7.23982 14.0647C7.23981 14.1679 7.26014 14.2701 7.29963 14.3654C7.33912 14.4608 7.39701 14.5474 7.46999 14.6204L7.47 14.6204L10.8298 17.9802L7.47114 21.3389C7.47093 21.3391 7.47072 21.3393 7.47051 21.3395C7.39685 21.4122 7.33826 21.4987 7.2981 21.594C7.25783 21.6896 7.23688 21.7922 7.23647 21.896C7.23606 21.9997 7.25619 22.1025 7.29571 22.1985C7.33523 22.2944 7.39335 22.3816 7.46672 22.4549L7.46672 22.4549C7.5401 22.5283 7.62726 22.5864 7.7232 22.6259C7.81913 22.6654 7.92194 22.6855 8.02569 22.685C8.12944 22.6846 8.23208 22.6636 8.32768 22.6233C8.42302 22.5831 8.50948 22.5245 8.5821 22.4509C8.58231 22.4506 8.58251 22.4504 8.58271 22.4502L11.9413 19.0913L15.1219 22.2723C15.1221 22.2725 15.1223 22.2727 15.1225 22.2729C15.1951 22.3466 15.2816 22.4052 15.3769 22.4454C15.4725 22.4857 15.5752 22.5066 15.6789 22.5071C15.7827 22.5075 15.8855 22.4874 15.9814 22.4478C16.0773 22.4083 16.1645 22.3502 16.2379 22.2769C16.3112 22.2035 16.3693 22.1163 16.4088 22.0204C16.4483 21.9245 16.4685 21.8217 16.468 21.7179C16.4676 21.6142 16.4467 21.5115 16.4064 21.4159C16.3662 21.3206 16.3076 21.2341 16.2339 21.1614C16.2337 21.1612 16.2335 21.1611 16.2333 21.1609L13.0528 17.9802Z" fill="#FFD300" stroke="#FFD300" stroke-width="0.4"/>
<path d="M34.6107 14.4032L34.6952 14.5844L34.6107 14.4032L23.3322 19.6669C23.1287 19.7618 22.9233 19.8546 22.7164 19.9451C23.0742 17.9659 22.8849 15.9239 22.1653 14.0406C21.4 12.0378 20.068 10.3011 18.332 9.04274C16.5961 7.78437 14.5312 7.05873 12.3897 6.95443C10.2482 6.85013 8.12258 7.3717 6.27255 8.45542C4.42253 9.53915 2.92811 11.1381 1.97179 13.0571C1.01548 14.9761 0.638651 17.1321 0.887335 19.2617C1.13602 21.3913 1.99945 23.4024 3.37218 25.0494C4.71328 26.6585 6.48376 27.852 8.47611 28.492L8.47611 29.8876L8.47611 29.8879C8.47705 30.6987 8.79957 31.4761 9.37293 32.0494C9.94628 32.6227 10.7236 32.9452 11.5345 32.9461H11.5347C11.5379 32.9461 11.5411 32.9461 11.5442 32.9462V42.2736C11.5442 42.482 11.627 42.6819 11.7744 42.8293C11.9218 42.9767 12.1217 43.0595 12.3301 43.0595H12.3303C13.7437 43.0579 15.0986 42.4957 16.098 41.4963C17.0973 40.4969 17.6594 39.1419 17.661 37.7286V37.7284V33.6335C19.6148 34.0718 21.5161 34.7189 23.3321 35.5636L34.6103 40.8272L34.6949 40.6459L34.6103 40.8272C34.7301 40.8831 34.862 40.9079 34.9939 40.8992C35.1258 40.8906 35.2534 40.8489 35.3649 40.7778C35.4763 40.7068 35.5681 40.6088 35.6317 40.493C35.6952 40.3771 35.7286 40.247 35.7285 40.1149V32.8688C36.9371 32.6623 38.0395 32.0449 38.8477 31.1181C39.6942 30.1474 40.1605 28.903 40.1605 27.615C40.1605 26.3271 39.6942 25.0827 38.8477 24.1119C38.0396 23.1853 36.9373 22.5679 35.7289 22.3613V15.1154C35.7289 14.9832 35.6956 14.8532 35.632 14.7373C35.5684 14.6215 35.4767 14.5235 35.3652 14.4525C35.2537 14.3815 35.1261 14.3398 34.9943 14.3311C34.8624 14.3225 34.7304 14.3473 34.6107 14.4032ZM23.9962 21.0909L30.4064 18.0994V37.1306L23.9961 34.139L23.9959 34.1389C21.9709 33.1965 19.8456 32.4867 17.661 32.0231V27.3652C19.7333 26.078 21.3242 24.1437 22.1872 21.8614C22.7971 21.6246 23.4046 21.3671 23.9961 21.091C23.9961 21.091 23.9961 21.0909 23.9962 21.0909ZM2.38441 17.9804C2.38443 16.1079 2.93972 14.2774 3.98005 12.7204C5.0204 11.1634 6.4991 9.94986 8.22914 9.23325C9.95919 8.51665 11.8629 8.32915 13.6995 8.69447C15.5361 9.0598 17.2231 9.96153 18.5472 11.2857C19.8714 12.6098 20.7731 14.2968 21.1384 16.1334C21.5037 17.97 21.3162 19.8737 20.5996 21.6038C19.883 23.3338 18.6695 24.8125 17.1125 25.8528C15.5556 26.8932 13.7251 27.4484 11.8526 27.4485C9.34235 27.4457 6.93573 26.4472 5.16071 24.6722C3.38572 22.8972 2.38727 20.4906 2.38441 17.9804ZM10.048 29.8875V28.8723C12.0878 29.2098 14.1812 28.9677 16.0895 28.1743V31.7325C14.583 31.4951 13.0602 31.3753 11.5349 31.3744C11.1407 31.3739 10.7628 31.2171 10.484 30.9384C10.2052 30.6597 10.0484 30.2817 10.048 29.8875ZM16.0891 37.7281C16.0879 38.6285 15.7641 39.4987 15.1765 40.1809C14.6398 40.8039 13.9154 41.2325 13.1157 41.4046V32.9938C14.112 33.0515 15.1046 33.1626 16.0891 33.3265V37.7281ZM34.1567 16.3494V38.8806L31.9785 37.8642V17.3659L34.1567 16.3494ZM37.7124 30.0267C37.1983 30.6413 36.5026 31.0738 35.7285 31.2644V23.9657C36.5026 24.1563 37.1983 24.5888 37.7124 25.2034C38.2782 25.8797 38.5882 26.7333 38.5882 27.615C38.5882 28.4968 38.2782 29.3504 37.7124 30.0267Z" fill="#FFD300" stroke="#FFD300" stroke-width="0.4"/>
<path d="M45.6023 27.6154C45.6039 26.1444 45.1721 24.7056 44.3609 23.4785L45.4023 27.6152M45.6023 27.6154L45.4023 27.6152M45.6023 27.6154C45.6023 27.6152 45.6023 27.6151 45.6023 27.615L45.4023 27.6152M45.6023 27.6154C45.6037 29.086 45.1718 30.5245 44.3607 31.7512C43.5496 32.9778 42.3952 33.9383 41.0417 34.5129M45.4023 27.6152C45.4037 29.0466 44.9834 30.4468 44.1939 31.6409C43.4043 32.8349 42.2805 33.7699 40.9628 34.3291M41.0417 34.5129C41.0419 34.5128 41.0421 34.5127 41.0424 34.5126L40.9628 34.3291M41.0417 34.5129C40.9468 34.554 40.8447 34.5759 40.7413 34.5774C40.6377 34.5789 40.5348 34.5599 40.4385 34.5215C40.3422 34.4831 40.2545 34.426 40.1804 34.3536C40.1063 34.2811 40.0472 34.1947 40.0066 34.0994C39.966 34.004 39.9447 33.9015 39.9438 33.7979C39.943 33.6943 39.9627 33.5915 40.0017 33.4955L40.187 33.5708M41.0417 34.5129C41.0414 34.513 41.0412 34.5131 41.0409 34.5132L40.9628 34.3291M40.9628 34.3291L40.187 33.5708M40.187 33.5708L40.0017 33.4954C40.0407 33.3994 40.0984 33.3121 40.1713 33.2385C40.2441 33.165 40.3307 33.1066 40.4261 33.0666C41.4951 32.6114 42.4068 31.8519 43.0476 30.8827C43.6886 29.9132 44.0303 28.7767 44.0303 27.6145C44.0303 26.4523 43.6886 25.3158 43.0476 24.3464C42.4068 23.3771 41.4951 22.6176 40.426 22.1624C40.3307 22.1224 40.2441 22.064 40.1713 21.9906C40.0984 21.9169 40.0407 21.8296 40.0017 21.7336C39.9627 21.6376 39.943 21.5348 39.9438 21.4311C39.9447 21.3275 39.966 21.225 40.0066 21.1297C40.0472 21.0343 40.1062 20.9479 40.1804 20.8755C40.2545 20.803 40.3422 20.7459 40.4385 20.7075C40.5347 20.6691 40.6377 20.6501 40.7413 20.6516C40.8447 20.6532 40.9468 20.6751 41.0417 20.7161C41.0419 20.7162 41.0421 20.7163 41.0424 20.7164L40.9628 20.8999L40.187 33.5708Z" fill="#FFD300" stroke="#FFD300" stroke-width="0.4"/>
<path d="M42.488 17.481C42.3931 17.44 42.291 17.4181 42.1876 17.4165C42.084 17.415 41.981 17.434 41.8848 17.4724C41.7885 17.5108 41.7008 17.5679 41.6267 17.6403C41.5525 17.7128 41.4935 17.7992 41.4529 17.8946C41.4123 17.9899 41.391 18.0924 41.3901 18.196C41.3893 18.2997 41.4089 18.4025 41.448 18.4985C41.487 18.5945 41.5447 18.6818 41.6176 18.7555C41.6904 18.8289 41.777 18.8873 41.8723 18.9273C43.5759 19.6526 45.0286 20.8627 46.0498 22.4072C47.071 23.9519 47.6155 25.7627 47.6155 27.6145C47.6155 29.4662 47.071 31.2771 46.0498 32.8217C45.0286 34.3662 43.5759 35.5764 41.8724 36.3016C41.777 36.3416 41.6904 36.4 41.6176 36.4735C41.5447 36.5471 41.487 36.6344 41.448 36.7304C41.4089 36.8265 41.3893 36.9292 41.3901 37.0329C41.391 37.1365 41.4123 37.239 41.4529 37.3344C41.4935 37.4297 41.5525 37.5161 41.6267 37.5886C41.7008 37.661 41.7885 37.7181 41.8848 37.7565C41.981 37.7949 42.084 37.8139 42.1876 37.8124C42.291 37.8109 42.3931 37.7889 42.488 37.7479C42.4882 37.7478 42.4884 37.7477 42.4886 37.7476L42.4091 37.5641L42.488 17.481Z" fill="#FFD300" stroke="#FFD300" stroke-width="0.4"/>
</svg>
