<svg width="50" height="50" viewBox="0 0 50 50" fill="none" xmlns="http://www.w3.org/2000/svg">
<path d="M40.625 29.8828C40.0859 29.8828 39.6484 30.3203 39.6484 30.8594C39.6484 31.3984 40.0859 31.8359 40.625 31.8359C41.1641 31.8359 41.6016 31.3984 41.6016 30.8594C41.6016 30.3203 41.1641 29.8828 40.625 29.8828Z" fill="#FFD300"/>
<path d="M9.375 29.8828C8.83594 29.8828 8.39844 30.3203 8.39844 30.8594C8.39844 31.3984 8.83594 31.8359 9.375 31.8359C9.91406 31.8359 10.3516 31.3984 10.3516 30.8594C10.3516 30.3203 9.91406 29.8828 9.375 29.8828Z" fill="#FFD300"/>
<path d="M47.0294 25.5598C46.7596 25.3784 46.4173 25.3431 46.116 25.4656C44.3285 26.1935 42.4344 26.5625 40.4863 26.5625H37.6221C32.2776 26.5625 27.9297 30.9104 27.9297 36.2549V38.7765C27.183 39.3751 26.5396 39.9437 25.9766 40.5042V25.3534C32.5223 24.8531 37.6953 19.367 37.6953 12.6953C37.6953 5.69512 32.0003 0 25 0C17.9998 0 12.3047 5.69512 12.3047 12.6953C12.3047 19.367 17.4777 24.8531 24.0234 25.3534V40.5042C23.4604 39.9437 22.817 39.3752 22.0703 38.7765V36.2549C22.0703 30.9104 17.7224 26.5625 12.3779 26.5625H9.51367C7.56553 26.5625 5.67148 26.1935 3.88389 25.4656C3.58271 25.3431 3.24033 25.3783 2.97061 25.5598C2.70088 25.7412 2.53906 26.045 2.53906 26.3701V28.2754C2.53906 34.8696 7.90381 40.2344 14.498 40.2344H20.7659C22.2287 41.3993 23.2521 42.4192 24.0234 43.4819V44.1406H21.0938C18.7357 44.1406 16.7629 45.8208 16.3092 48.0469H13.2812C12.7419 48.0469 12.3047 48.4841 12.3047 49.0234C12.3047 49.5628 12.7419 50 13.2812 50H36.7188C37.258 50 37.6953 49.5628 37.6953 49.0234C37.6953 48.4841 37.258 48.0469 36.7188 48.0469H33.6908C33.2371 45.8208 31.2644 44.1406 28.9062 44.1406H25.9766V43.482C26.7479 42.4192 27.7713 41.3993 29.2341 40.2344H35.502C42.0961 40.2344 47.4609 34.8696 47.4609 28.2754V26.3701C47.4609 26.045 47.2991 25.7412 47.0294 25.5598ZM20.1172 37.302C19.3085 36.719 18.4533 36.1264 17.5679 35.5131C16.1569 34.536 14.698 33.5256 13.1299 32.3559C12.6976 32.0334 12.0857 32.1224 11.7632 32.5548C11.4407 32.9871 11.5297 33.5989 11.9621 33.9215C13.5578 35.1118 15.0975 36.178 16.456 37.1188C17.0271 37.5144 17.5854 37.9012 18.1253 38.2812H14.498C8.98076 38.2812 4.49219 33.7927 4.49219 28.2754V27.7569C6.11055 28.2608 7.79395 28.5156 9.51367 28.5156H12.3779C16.6454 28.5156 20.1172 31.9874 20.1172 36.2549V37.302ZM28.9062 46.0938C30.1793 46.0938 31.2648 46.9103 31.668 48.0469H18.332C18.7352 46.9103 19.8206 46.0938 21.0938 46.0938H28.9062ZM25 23.4375C19.0768 23.4375 14.2578 18.6186 14.2578 12.6953C14.2578 6.77207 19.0768 1.95312 25 1.95312C30.9232 1.95312 35.7422 6.77207 35.7422 12.6953C35.7422 18.6186 30.9232 23.4375 25 23.4375ZM45.5078 28.2754C45.5078 33.7927 41.0192 38.2812 35.502 38.2812H31.8747C32.4147 37.9011 32.973 37.5142 33.5444 37.1186C34.9027 36.1778 36.4424 35.1117 38.0381 33.9215C38.4704 33.599 38.5594 32.9871 38.2369 32.5548C37.9145 32.1225 37.3026 32.0333 36.8702 32.3559C35.3021 33.5255 33.8434 34.5357 32.4325 35.5128C31.5469 36.1261 30.6916 36.7189 29.8829 37.3019V36.2549C29.8828 31.9874 33.3547 28.5156 37.6221 28.5156H40.4863C42.2061 28.5156 43.8895 28.2608 45.5078 27.7568V28.2754Z" fill="#FFD300"/>
<path d="M25.4568 11.9019C24.0011 11.1324 23.0469 10.5729 23.0469 9.83496C23.0469 8.75801 23.923 7.88184 25 7.88184C26.077 7.88184 26.9531 8.75801 26.9531 9.83496C26.9531 10.3743 27.3904 10.8115 27.9297 10.8115C28.4689 10.8115 28.9062 10.3743 28.9062 9.83496C28.9062 8.01816 27.6595 6.48711 25.9766 6.05234V4.95215C25.9766 4.41279 25.5393 3.97559 25 3.97559C24.4607 3.97559 24.0234 4.41279 24.0234 4.95215V6.05234C22.3405 6.48711 21.0938 8.01816 21.0938 9.83496C21.0938 11.8048 22.9268 12.7737 24.544 13.6286C25.9992 14.3979 26.9531 14.9571 26.9531 15.6943C26.9531 16.7713 26.077 17.6475 25 17.6475C23.923 17.6475 23.0469 16.7713 23.0469 15.6943C23.0469 15.155 22.6097 14.7178 22.0703 14.7178C21.531 14.7178 21.0938 15.155 21.0938 15.6943C21.0938 17.5111 22.3405 19.0422 24.0234 19.477V20.5771C24.0234 21.1165 24.4607 21.5537 25 21.5537C25.5393 21.5537 25.9766 21.1165 25.9766 20.5771V19.477C27.6595 19.0422 28.9062 17.5111 28.9062 15.6943C28.9062 13.7252 27.0736 12.7565 25.4568 11.9019Z" fill="#FFD300"/>
</svg>
