<svg width="50" height="50" viewBox="0 0 50 50" fill="none" xmlns="http://www.w3.org/2000/svg">
<path d="M24.9128 6.35352C25.4559 6.35352 25.8963 5.91318 25.8963 5.37002V0.983496C25.8963 0.440332 25.4559 0 24.9128 0C24.3696 0 23.9293 0.440332 23.9293 0.983496V5.37002C23.9294 5.91318 24.3697 6.35352 24.9128 6.35352Z" fill="#FFD300"/>
<path d="M48.9531 33.7878L47.2157 32.0552C46.5977 31.438 45.7739 31.0979 44.8962 31.0979C44.335 31.0979 43.7962 31.2376 43.3188 31.4992L40.0447 28.2291L40.2042 28.0698C41.5324 26.7389 41.5319 24.5763 40.2041 23.25C39.7296 22.7746 39.1375 22.4576 38.4921 22.3242C38.581 22.0174 38.6277 21.6962 38.6277 21.3673C38.6277 20.4538 38.2729 19.5971 37.6305 18.9574C37.1559 18.482 36.5639 18.165 35.9185 18.0316C36.0073 17.7249 36.0541 17.4037 36.0541 17.0748C36.0541 16.1611 35.6992 15.3046 35.0558 14.6638C34.5698 14.1785 33.9725 13.8713 33.3452 13.7405C33.6808 12.5836 33.3941 11.2819 32.4839 10.3702C31.7263 9.61578 30.6983 9.29156 29.7075 9.39664L23.2197 8.16861C22.2303 7.98092 20.9946 7.8568 20.2147 8.56822C20.1654 8.61315 20.1152 8.66481 20.0658 8.72233C18.8565 8.28151 17.4459 8.54401 16.4775 9.51139C15.835 10.1531 15.4811 11.0093 15.4811 11.9224C15.4811 12.2513 15.5276 12.5725 15.6164 12.8794C14.9717 13.0127 14.3804 13.3293 13.9074 13.8031C13.2637 14.4442 12.9087 15.2995 12.908 16.2115C12.9077 16.5412 12.9545 16.8634 13.0438 17.1711C12.3987 17.3041 11.807 17.6201 11.3326 18.0939C10.6889 18.737 10.3344 19.5937 10.3344 20.5063C10.3344 21.2053 10.5431 21.8713 10.9298 22.4338C10.4415 22.5993 9.99425 22.8748 9.61974 23.2489C8.29064 24.5763 8.29015 26.739 9.62062 28.0718L9.77951 28.23L6.50509 31.4985C5.2882 30.9255 3.78888 31.1402 2.78468 32.1431L1.04621 33.8767C0.427846 34.4943 0.0874161 35.3181 0.0873184 36.1963C0.0873184 37.0747 0.427846 37.8986 1.04621 38.5163L3.21583 40.6833C3.60011 41.0672 4.22287 41.0668 4.60665 40.6825C4.99054 40.2982 4.99015 39.6755 4.60587 39.2917L2.43624 37.1247C2.18995 36.8787 2.05431 36.549 2.05431 36.1964C2.05431 35.844 2.18995 35.5144 2.43566 35.269L4.17423 33.5353C4.60861 33.1014 5.27345 33.0368 5.77833 33.3386C5.81388 33.3921 5.85499 33.4428 5.90206 33.49C5.98634 33.5745 6.08253 33.6392 6.18468 33.6866L16.1547 43.642C16.2021 43.7452 16.2671 43.8423 16.352 43.9273C16.4346 44.01 16.5288 44.074 16.6288 44.1211C16.8397 44.3594 16.9562 44.6639 16.9562 44.9887C16.9562 45.3413 16.8205 45.6709 16.5742 45.9169L14.8374 47.6516C14.3242 48.1626 13.4895 48.1625 12.9778 47.6532L10.8082 45.4834C10.4241 45.0993 9.80148 45.0993 9.4174 45.4834C9.03331 45.8674 9.03331 46.4901 9.4174 46.8742L11.5886 49.0456C12.2276 49.682 13.0669 50.0001 13.9066 50.0001C14.7464 50.0001 15.5866 49.6815 16.2265 49.0445L17.9644 47.3087C18.5827 46.691 18.9233 45.8672 18.9233 44.9887C18.9233 44.3619 18.7489 43.7632 18.4248 43.247L22.11 39.5664C22.1139 39.5624 22.1178 39.5584 22.1218 39.5544C22.5438 39.1181 23.7189 39.1998 24.8553 39.2787C25.6627 39.3348 26.5629 39.3972 27.4424 39.2959L31.4779 43.3266C31.2165 43.8033 31.077 44.3414 31.077 44.9017C31.077 45.7792 31.4175 46.6025 32.0359 47.2202L33.7738 48.956C34.3918 49.5733 35.2155 49.9133 36.0933 49.9133C36.9709 49.9133 37.7946 49.5734 38.4127 48.956L48.9538 38.4277C49.5722 37.8101 49.9127 36.9863 49.9127 36.108C49.9126 35.2297 49.5721 34.4059 48.9531 33.7878ZM22.8535 10.1012L27.1198 10.9088L24.5662 13.4614C24.1712 13.2715 23.6298 12.9174 23.0359 12.3493C22.2229 11.5715 21.6413 10.6736 21.5884 10.1135C21.5883 10.1132 21.5883 10.113 21.5883 10.1127C21.5883 10.1126 21.5882 10.1125 21.5882 10.1124C21.5844 10.0721 21.5834 10.04 21.5839 10.0155C21.7125 9.98424 22.0541 9.94957 22.8535 10.1012ZM17.8674 10.9031C18.3656 10.4053 19.1397 10.3479 19.7027 10.7292C20.0217 12.0669 21.1628 13.2793 21.6762 13.7705C22.0567 14.1345 23.2775 15.226 24.5097 15.526C24.6764 15.765 24.7671 16.0499 24.7671 16.3505C24.7671 16.7377 24.6182 17.0997 24.3468 17.3708C24.0762 17.6419 23.7136 17.7911 23.3257 17.7911C22.9377 17.7911 22.5751 17.6419 22.3032 17.3695L22.3031 17.3694L22.3026 17.3689L17.8673 12.9416C17.5969 12.6715 17.448 12.3095 17.448 11.9224C17.4481 11.5352 17.597 11.1732 17.8674 10.9031ZM15.2975 15.1948C15.5681 14.9238 15.9303 14.7745 16.3176 14.7745C16.7054 14.7745 17.0688 14.9241 17.3411 15.1962L20.9126 18.7605C21.475 19.3238 21.475 20.2404 20.9146 20.8017C20.6425 21.0727 20.2786 21.2219 19.8901 21.2219C19.5015 21.2219 19.1376 21.0727 18.8667 20.8029L18.8666 20.8028L16.1571 18.0939C16.1529 18.0897 16.1484 18.0858 16.1441 18.0815L15.2964 17.2342C15.0244 16.9626 14.8747 16.5999 14.875 16.213C14.8754 15.8273 15.0246 15.4665 15.2975 15.1948ZM12.7227 19.4856C12.9935 19.2152 13.3565 19.0663 13.7449 19.0663C14.1302 19.0663 14.4901 19.213 14.7597 19.4788L17.4775 22.1953C17.7484 22.4652 17.8978 22.8268 17.8978 23.2135C17.8978 23.6002 17.7484 23.9618 17.4764 24.2328C17.2057 24.5031 16.8431 24.652 16.4553 24.652C16.0669 24.652 15.7031 24.5027 15.432 24.2328L14.4468 23.2487C14.4466 23.2484 14.4463 23.2482 14.4461 23.248L12.7228 21.5267C12.4511 21.2553 12.3015 20.8928 12.3015 20.5061C12.3015 20.1195 12.4511 19.7569 12.7227 19.4856ZM11.0098 24.6405C11.2818 24.3688 11.6452 24.2192 12.0332 24.2192C12.4211 24.2192 12.7845 24.3687 13.0564 24.6402L14.043 25.6256C14.3141 25.8956 14.4633 26.2572 14.4633 26.6439C14.4633 27.0306 14.314 27.3922 14.0409 27.6642C13.7703 27.9352 13.4077 28.0845 13.0198 28.0845C12.6318 28.0845 12.2693 27.9353 11.9967 27.6623L11.8732 27.5392C11.8715 27.5376 11.8702 27.5358 11.8687 27.5342C11.8668 27.5325 11.8649 27.5309 11.863 27.5292L11.0108 26.6802C10.4484 26.1167 10.4479 25.2017 11.0098 24.6405ZM31.0522 35.818C30.6683 35.4337 30.0455 35.4334 29.6613 35.8172L28.7863 36.6911C27.9549 37.5225 26.4484 37.4178 24.9914 37.3168C23.4093 37.2068 21.7733 37.0933 20.7146 38.1802L17.092 41.7984L8.03312 32.7528L11.239 29.5527C11.7689 29.8775 12.3803 30.0516 13.02 30.0516C13.934 30.0516 14.791 29.6973 15.4312 29.056C16.0756 28.4142 16.4306 27.5577 16.4306 26.644C16.4306 26.6355 16.43 26.6271 16.43 26.6186C16.4385 26.6187 16.447 26.6192 16.4555 26.6192C17.3682 26.6192 18.2245 26.266 18.8655 25.6257C19.51 24.9839 19.865 24.1273 19.865 23.2137C19.865 23.2052 19.8644 23.1968 19.8644 23.1883C19.873 23.1883 19.8816 23.1889 19.8902 23.1889C20.8026 23.1889 21.6595 22.8361 22.3048 22.1934C22.9747 21.5224 23.3061 20.639 23.2997 19.7575C23.3085 19.7576 23.3173 19.7581 23.3261 19.7581C24.2401 19.758 25.097 19.4038 25.7381 18.7615C26.3806 18.1198 26.7345 17.2635 26.7345 16.3505C26.7345 15.7119 26.5609 15.1014 26.2371 14.5726L29.047 11.7639C29.2564 11.5554 29.5146 11.4246 29.7852 11.3706C29.8145 11.3674 29.8434 11.3628 29.872 11.3571C30.3062 11.2972 30.7621 11.4312 31.0942 11.7619C31.6566 12.3253 31.6566 13.2419 31.0962 13.8032L30.2404 14.6554C30.2376 14.6583 30.2346 14.6608 30.2317 14.6636L29.2461 15.6476C28.8617 16.0314 28.8613 16.6542 29.2452 17.0384C29.6292 17.4228 30.2519 17.4231 30.636 17.0393L31.4952 16.1813C31.4954 16.1811 31.4956 16.1809 31.4958 16.1807L31.6257 16.0513C32.1897 15.4925 33.1033 15.4937 33.6667 16.0563C33.9378 16.3262 34.0871 16.6879 34.0871 17.0746C34.0871 17.4612 33.9378 17.8228 33.6646 18.0949L32.8039 18.9573C32.8038 18.9574 32.8037 18.9575 32.8036 18.9577L31.8181 19.9392C31.4332 20.3225 31.4319 20.9453 31.8152 21.33C32.1985 21.7149 32.8212 21.7161 33.2061 21.3329L34.1961 20.3468C34.4667 20.0757 34.8293 19.9265 35.2172 19.9265C35.6052 19.9265 35.9679 20.0757 36.2404 20.3488C36.5115 20.6188 36.6608 20.9804 36.6608 21.3672C36.6608 21.7538 36.5115 22.1154 36.2389 22.3869L34.5231 24.1034C34.1391 24.4876 34.1392 25.1102 34.5233 25.4942C34.7153 25.6862 34.9669 25.7821 35.2186 25.7821C35.4703 25.7821 35.7221 25.686 35.9141 25.4939L36.755 24.6527C36.7598 24.6481 36.7649 24.6441 36.7697 24.6393C37.0403 24.3682 37.4029 24.219 37.7908 24.219C38.1788 24.219 38.5414 24.3682 38.813 24.6403C39.3748 25.2015 39.3743 26.1166 38.813 26.6789L37.958 27.5329C37.9577 27.5332 37.9573 27.5335 37.957 27.5338C37.9567 27.534 37.9565 27.5344 37.9562 27.5347L36.5991 28.8901C36.2149 29.274 36.2145 29.8967 36.5983 30.281C36.7903 30.4733 37.0423 30.5695 37.2942 30.5695C37.5456 30.5695 37.7972 30.4736 37.9892 30.2819L38.6529 29.6189L41.8343 32.7965L32.7762 41.8436L29.5307 38.602C29.7569 38.4565 29.9734 38.2854 30.1767 38.0822L31.0512 37.2088C31.4357 36.8251 31.436 36.2023 31.0522 35.818ZM47.5637 37.036L37.0226 47.5643C36.776 47.8106 36.4459 47.9463 36.0932 47.9463C35.7404 47.9463 35.4104 47.8106 35.1637 47.5642L33.4257 45.8284C33.1794 45.5825 33.0438 45.2534 33.0438 44.9017C33.0438 44.5502 33.1794 44.2211 33.4257 43.9751L43.9668 33.4467C44.2135 33.2004 44.5435 33.0647 44.8963 33.0647C45.249 33.0647 45.5791 33.2004 45.8264 33.4473L47.5638 35.1798C47.8101 35.4258 47.9457 35.7553 47.9457 36.1079C47.9456 36.4605 47.81 36.7901 47.5637 37.036Z" fill="#FFD300"/>
<path d="M11.8533 5.52443C12.0453 5.71603 12.2967 5.81173 12.548 5.81173C12.8 5.81173 13.052 5.71544 13.2441 5.52296C13.6278 5.13849 13.6272 4.51583 13.2428 4.13214L9.65896 0.555481C9.27459 0.17179 8.65184 0.172278 8.26814 0.556849C7.88445 0.941321 7.88504 1.56398 8.26951 1.94767L11.8533 5.52443Z" fill="#FFD300"/>
<path d="M37.2775 5.81169C37.529 5.81169 37.7806 5.7158 37.9726 5.5241L41.5536 1.94734C41.9379 1.56355 41.9383 0.940796 41.5544 0.556519C41.1706 0.172241 40.548 0.171851 40.1636 0.555737L36.5825 4.1325C36.1982 4.51628 36.1979 5.13904 36.5817 5.52332C36.7738 5.7156 37.0257 5.81169 37.2775 5.81169Z" fill="#FFD300"/>
<path d="M6.13468 42.305C5.75392 42.6923 5.75919 43.3151 6.14659 43.6958L6.14943 43.6986C6.34054 43.8865 6.58868 43.98 6.83673 43.98C7.09132 43.98 7.34591 43.8815 7.53878 43.6853C7.91954 43.298 7.9128 42.6739 7.5255 42.2931C7.13829 41.9123 6.51564 41.9177 6.13468 42.305Z" fill="#FFD300"/>
<path d="M33.4576 34.4011C33.6072 34.4011 33.759 34.367 33.9015 34.2952C34.3864 34.0506 34.5813 33.4592 34.3367 32.9742C34.0921 32.4892 33.5006 32.2943 33.0157 32.5389L33.0103 32.5417C32.5253 32.7863 32.3332 33.3763 32.5778 33.8613C32.7504 34.2039 33.0977 34.4011 33.4576 34.4011Z" fill="#FFD300"/>
</svg>
