<svg width="50" height="50" viewBox="0 0 50 50" fill="none" xmlns="http://www.w3.org/2000/svg">
<g clip-path="url(#clip0)">
<path d="M33.8544 47.6827V47.7209H33.7044H6.47774H6.32774V47.6655C2.77001 47.4245 -0.149992 44.3908 -0.149992 40.6919V36.7738C-0.149992 36.2569 0.246224 35.7812 0.788769 35.7812H6.94956L7.15683 7.46146C7.15683 7.46129 7.15683 7.46112 7.15683 7.46095C7.15711 4.60609 9.50852 2.2792 12.3956 2.2792H44.5773V2.27812L44.7273 2.2792L44.7284 2.2792C47.7327 2.30075 50.1553 4.74485 50.15 7.74916M33.8544 47.6827L50 7.74889M33.8544 47.6827C33.8822 47.6866 33.9089 47.691 33.9356 47.6955L33.9446 47.697C34.013 47.7084 34.0879 47.7209 34.1686 47.7209H34.188L34.1889 47.7209C38.0496 47.6983 41.1617 44.5516 41.1419 40.691M33.8544 47.6827L41.1419 40.691M50.15 7.74916L50 7.74889M50.15 7.74916V7.74889H50M50.15 7.74916V14.9379C50.15 15.4522 49.7558 15.9395 49.2112 15.9395H41.1419M50 7.74889V14.9379C50 15.3847 49.6584 15.7895 49.2112 15.7895H41.1419V15.9395M41.1419 15.9395H40.9919V40.6911M41.1419 15.9395L41.1419 40.6903L40.9919 40.6911M40.9919 40.6911H41.1419V40.691M40.9919 40.6911C41.0117 44.4692 37.9661 47.5488 34.188 47.5709H34.1686C34.1006 47.5709 34.0366 47.5602 33.9653 47.5484C33.9305 47.5426 33.894 47.5365 33.8544 47.5312L41.1419 40.691M28.9474 36.7738C28.9497 36.3203 28.5911 35.947 28.1376 35.9312M28.9474 36.7738V40.678C28.9406 43.5737 31.2745 45.9305 34.1702 45.9515L28.1376 35.9312M28.9474 36.7738H29.0974V36.7742C29.0974 36.7743 29.0974 36.7744 29.0974 36.7745L29.0974 40.678V40.6784C29.0908 43.4914 31.3579 45.7808 34.1708 45.8015M28.9474 36.7738L34.1708 45.8015M28.1376 35.9312H8.8679H28.1376ZM34.1708 45.8015C34.1709 45.8015 34.1711 45.8015 34.1713 45.8015L34.1868 45.8015C36.9826 45.8015 39.2225 43.491 39.2225 40.6903V7.77064C39.2225 6.41365 39.7553 5.19104 40.5756 4.19863H12.3956C10.5632 4.19863 9.07626 5.66873 9.07626 7.467V7.46809L8.869 35.7812L34.1708 45.8015ZM6.82645 45.8015H6.83199H29.3991C29.3956 45.7986 29.392 45.7957 29.3884 45.7927C29.3362 45.75 29.2771 45.7017 29.2223 45.6466C29.2222 45.6465 29.2222 45.6465 29.2221 45.6464L29.3285 45.5407C28.0416 44.2502 27.3216 42.5003 27.3279 40.6776L6.82645 45.8015ZM6.82645 45.8015C4.03102 45.8015 1.76944 43.4901 1.76944 40.6911V37.7007H27.1779V40.6771L6.82645 45.8015ZM48.2305 7.7565V7.7572V7.76313V14.0201H41.1419V7.76906C41.1419 5.8248 42.761 4.19863 44.7036 4.19863H44.7254C46.6735 4.21837 48.2397 5.80785 48.2305 7.7565Z" fill="#FFD300" stroke="#FFD300" stroke-width="0.3"/>
<path d="M30.4057 10.9275L30.4057 10.9276C30.7285 11.0922 30.9287 11.4279 30.9193 11.7903V17.563C30.9193 18.4661 30.6441 19.4425 30.1875 20.317C29.731 21.1914 29.0875 21.9744 28.34 22.4843L24.1786 25.3373C24.1785 25.3374 24.1785 25.3374 24.1784 25.3374C23.8549 25.5604 23.4271 25.5604 23.1036 25.3375C23.1035 25.3374 23.1034 25.3374 23.1033 25.3373L18.9292 22.4836L30.4057 10.9275ZM30.4057 10.9275L30.4037 10.9266M30.4057 10.9275L30.4037 10.9266M30.4037 10.9266L24.0479 7.80024C24.0478 7.80019 24.0477 7.80015 24.0476 7.80011C23.7828 7.66873 23.4719 7.66871 23.2071 7.80007C23.207 7.80013 23.2069 7.80018 23.2067 7.80024L16.8628 10.9179L16.8628 10.9178M30.4037 10.9266L16.8628 10.9178M16.8628 10.9178L16.8608 10.9189M16.8628 10.9178L16.8608 10.9189M16.8608 10.9189C16.5379 11.0836 16.3381 11.4193 16.348 11.7817M16.8608 10.9189L16.348 11.7817M16.348 11.7817V17.563C16.348 18.4661 16.6237 19.4426 17.0809 20.317C17.538 21.1912 18.1819 21.974 18.9291 22.4835L16.348 11.7817ZM27.2573 20.8978L27.2571 20.8979L23.6243 23.3825L20.006 20.8984L20.0057 20.8982C19.5272 20.5717 19.091 20.0336 18.7742 19.4228C18.4574 18.8121 18.2674 18.1431 18.2674 17.563V12.3781L23.6335 9.73043L28.9998 12.3855V17.563C28.9998 18.143 28.8088 18.812 28.491 19.4227C28.1731 20.0335 27.7358 20.5716 27.2573 20.8978Z" fill="#FFD300" stroke="#FFD300" stroke-width="0.3"/>
<path d="M26.7389 15.6726C27.1142 15.2978 27.1143 14.6896 26.7395 14.3147M26.7389 15.6726L26.6329 15.5665L26.739 15.6725L26.7389 15.6726ZM26.7389 15.6726L23.5183 18.8944L23.4118 18.7887L26.7395 14.3147M26.7395 14.3147C26.365 13.9393 25.7567 13.9394 25.3819 14.3142C25.3819 14.3142 25.3818 14.3142 25.3818 14.3142L22.8426 16.8531L21.8911 15.8922L21.891 15.8922C21.5176 15.5155 20.9098 15.5127 20.5331 15.8861C20.1563 16.2596 20.1541 16.8673 20.527 17.244L22.1569 18.8905C22.157 18.8906 22.1571 18.8907 22.1572 18.8908C22.3362 19.0734 22.5808 19.1769 22.8365 19.1783H22.8373L22.8393 19.1783L22.8399 19.1783C23.0946 19.1774 23.3386 19.0753 23.5181 18.8946L26.7395 14.3147Z" fill="#FFD300" stroke="#FFD300" stroke-width="0.3"/>
<path d="M33.7044 27.3803H14.2712C13.7412 27.3803 13.3115 27.81 13.3115 28.34C13.3115 28.87 13.7412 29.2997 14.2712 29.2997H33.7044C34.2344 29.2997 34.6642 28.87 34.6642 28.34C34.6642 27.81 34.2344 27.3803 33.7044 27.3803Z" fill="#FFD300" stroke="#FFD300" stroke-width="0.3"/>
<path d="M33.7044 31.1254H14.2712C13.7412 31.1254 13.3115 31.5551 13.3115 32.0851C13.3115 32.6151 13.7412 33.0448 14.2712 33.0448H33.7044C34.2344 33.0448 34.6642 32.6151 34.6642 32.0851C34.6642 31.5551 34.2344 31.1254 33.7044 31.1254Z" fill="#FFD300" stroke="#FFD300" stroke-width="0.3"/>
</g>
<defs>
<clipPath id="clip0">
<rect width="50" height="50" fill="white"/>
</clipPath>
</defs>
</svg>
