<svg width="47" height="57" viewBox="0 0 47 57" fill="none" xmlns="http://www.w3.org/2000/svg">
<path d="M3.46621 0.84375L0.752441 8.56131L2.72678 39.6785L18.2725 55.9835L28.5126 55.8587L43.9346 40.1758C43.9346 40.1758 46.1554 26.6086 45.6616 25.9865C45.1678 25.3644 46.1554 8.06316 46.1554 8.06316L42.7006 0.84375H3.46621Z" fill="#FFD300"/>
<path d="M2.93739 0.592041L0 8.86393L0.51118 25.558L1.97567 40.6942L18.0606 56.7389H28.6017L44.5536 40.7791L46.2867 25.8695V25.839L46.6572 8.88855V8.80366L43.836 0.592041H2.93739ZM24.2234 17.0611L26.1401 18.4194L28.8089 32.3001L24.1939 34.1474L24.2234 17.0611ZM33.4996 21.3057L33.6967 21.3821L39.9395 20.3813L42.9063 27.7728L34.6803 40.3139L30.4561 32.5208L27.8783 19.1079L33.4996 21.3057ZM29.0691 17.8684L33.4718 16.2436L38.6771 17.326L39.3062 18.8778L33.8684 19.7429L29.0691 17.8684ZM38.9508 15.7623L33.3505 14.5975L26.8585 16.9941L24.2478 15.2962L44.9367 8.88431L38.9508 15.7623ZM23.3947 36.1873L29.3495 33.7908L32.8065 40.1688L27.9019 37.9616L18.6282 38.1577L13.7631 40.1458L17.4458 33.7789L23.3947 36.1873ZM32.4899 41.9906H14.3341L18.9213 39.7519L27.6189 39.5745L32.4899 41.9906ZM19.6051 16.8268L13.0928 14.6069L7.58771 15.5916L1.52007 8.45136L22.7648 15.2835L19.6051 16.8268ZM22.6452 17.0348L22.6157 34.1448L17.984 32.2916L20.3032 18.2632L22.6452 17.0348ZM17.3886 17.7479L12.9328 19.6461L7.26348 18.6834L7.85972 17.1553L12.9707 16.2411L17.3886 17.7479ZM13.1239 21.2879L18.5937 18.9585L16.3544 32.5191L11.8506 40.302C10.104 37.6959 5.4933 30.5344 3.71637 27.7703L6.67061 20.2013L13.1239 21.2879ZM3.98418 2.38751C7.54307 2.40024 22.6191 2.41298 22.6191 2.41298L22.7378 13.5339C22.7378 13.5339 6.02637 8.16018 2.19883 6.82737L3.98418 2.38751ZM1.99167 25.4833L1.55712 11.2834L6.38007 16.6112L2.4279 26.7388L2.0742 26.3407L1.99167 25.4833ZM12.6582 49.2454L10.9647 47.5569L3.39973 40.0117L2.36726 29.3637C3.39636 30.5861 5.03601 32.7356 5.87815 34.0379C7.42517 36.431 8.65722 38.3232 9.53558 39.6637L10.8375 41.6459L12.7071 44.4397L15.0836 47.9754L16.0723 52.6513L12.6582 49.2454ZM14.196 43.5789H32.1673L30.1335 46.8472H16.2281L14.196 43.5789ZM27.6197 55.2439H18.6737L18.544 55.1149C18.0252 53.1276 16.8336 48.4356 16.8336 48.4356H29.5171C29.5171 48.4356 28.1756 53.3152 27.6189 55.2431L27.6197 55.2439ZM43.1438 40.083L35.6934 47.5366L33.8499 49.3804L29.8598 53.3703C30.3879 51.3576 31.2645 47.9797 31.2645 47.9797L33.828 44.3378L35.647 41.7495C35.647 41.7495 42.0566 32.0089 44.4677 28.6761L43.1438 40.083ZM44.8112 25.7312L44.7986 25.8364L44.1594 26.4426L40.1576 16.7861C40.1576 16.7861 43.5354 12.9226 45.1262 11.3199L44.8112 25.7312ZM44.194 6.95725C40.4843 8.16442 24.1939 13.6187 24.1939 13.6187V2.41298C24.1939 2.41298 38.811 2.41298 42.4297 2.46137L44.194 6.95725Z" fill="#0B0B0B"/>
<path d="M6.73839 16.7161L13.4618 15.6989L19.0646 17.7341L12.9949 20.2309L6.27148 19.3062L6.73839 16.7161Z" fill="#0B0B0B"/>
<path d="M28.1523 16.9991L34.0221 15.1951L39.5192 16.9991L40.6372 20.1323L33.5562 20.986L27.5933 17.9485L28.1523 16.9991Z" fill="#0B0B0B"/>
</svg>
