<svg width="231" height="18" viewBox="0 0 231 18" fill="none" xmlns="http://www.w3.org/2000/svg">
<path d="M17.8631 0.189697H14.7979V17.2806H17.8631V0.189697Z" fill="#FFD300"/>
<path d="M39.283 0.189697H36.2178V17.2806H39.283V0.189697Z" fill="#FFD300"/>
<path d="M42.0342 0.189697V3.13449H46.5689V17.2806H49.5745V3.13449H54.1092V0.189697H42.0342Z" fill="#FFD300"/>
<path d="M61.9348 0.189697H59.4828L53.2734 17.2806H56.5186L57.7272 13.6996H63.6812L64.8899 17.2806H68.135L61.9348 0.189697ZM58.7289 10.7548L60.7095 4.90812L62.6902 10.7563L58.7289 10.7548Z" fill="#FFD300"/>
<path d="M72.9517 14.3358V0.189697H69.9746V17.2806H80.935V14.3358H72.9517Z" fill="#FFD300"/>
<path d="M86.6393 0.189697H83.667V17.2806H86.6393V0.189697Z" fill="#FFD300"/>
<path d="M93.8071 14.3358L100.433 2.74206L100.484 2.65315V0.189697H90.219V3.13449H96.7502L90.021 14.8171V17.2806H100.703V14.3358H93.8071Z" fill="#FFD300"/>
<path d="M111.783 0.189697H109.346L103.176 17.2806H106.401L107.602 13.6996H113.519L114.72 17.2806H117.944L111.783 0.189697ZM108.597 10.7548L110.564 4.90812L112.532 10.7563L108.597 10.7548Z" fill="#FFD300"/>
<path d="M116.83 0.189697V3.13449H121.365V17.2806H124.369V3.13449H128.905V0.189697H116.83Z" fill="#FFD300"/>
<path d="M9.39594 0.189697H0.12207V17.2806H9.39594L12.0113 14.6201V2.85012L9.39594 0.189697ZM9.01714 12.5446L7.10652 14.4881H3.0559V3.08346H7.10652L9.01563 5.02543L9.01714 12.5446Z" fill="#FFD300"/>
<path d="M155.24 0.189697H145.931L145.904 17.2806L148.894 17.2545V10.2464H151.858L155.139 17.1594L158.722 17.1333L155.24 10.2449L157.839 7.5873V2.84725L155.24 0.189697ZM154.86 6.52765L153.752 7.45542H148.88V3.07881H153.752L154.86 4.30561V6.52765Z" fill="#FFD300"/>
<path d="M167.613 13.8622H164.194V17.2804H167.613V13.8622Z" fill="#FFD300"/>
<path d="M29.6086 5.34689H32.6883V0.211185L23.7657 0.189697L20.6133 3.24871V14.5853L23.7551 17.2744L32.6747 17.2806L32.6626 8.97841H27.4132V11.9208H29.6086L29.6344 14.0051L25.4705 14.0189L23.6158 12.6237V5.01382L25.5205 3.09522L29.6344 3.08294L29.6086 5.34689Z" fill="#FFD300"/>
<path d="M140.489 0.189697H133.724L131.208 2.75172V14.7247L133.724 17.2806H140.489L143.005 14.7247V2.75172L140.489 0.189697ZM140.11 12.7238L138.628 14.3828H135.609L134.1 12.7499V4.72038L135.609 3.08749H138.628L140.11 4.74644V12.7238Z" fill="#FFD300"/>
<path d="M230.64 2.66905L228.035 0H218.706L218.677 9.60735H218.696L218.677 17.0647L228.035 17.0909L230.64 14.4218V9.52881L229.388 8.24588L230.64 6.96294V2.66905ZM221.66 2.90161H226.543L227.654 4.13372V5.89717L226.543 6.83511H221.66V2.90161ZM227.654 13.353L226.543 14.2847H221.66V9.76137H226.543L227.654 10.9935V13.353Z" fill="white"/>
<path d="M192.642 14.1463V0H189.623V17.0909H200.732V14.1463H192.642Z" fill="white"/>
<path d="M182.299 11.9049H185.35V17.0708L176.51 17.0909L173.386 14.4261V2.71107L176.499 0.00771933L185.336 0L185.324 5.40361L182.299 5.39126L182.324 3.29466L178.199 3.28077L176.361 4.78606V12.24L178.248 14.1698L182.324 14.1822L182.299 11.9049Z" fill="white"/>
<path d="M212.222 0V13.4215L211.093 14.3385H206.606L205.477 13.4215V0.0257236H202.44V14.4686L205.068 17.0712L205.088 17.0909L208.849 17.0818L212.609 17.0909L212.63 17.0712L215.259 14.4686V0H212.222Z" fill="white"/>
</svg>
