<svg width="15" height="15" viewBox="0 0 15 15" fill="none" xmlns="http://www.w3.org/2000/svg">
<g clip-path="url(#clip0)">
<path d="M9.94561 7.98899H0.48913C0.219129 7.98899 0 7.76986 0 7.49987C0 7.22987 0.219129 7.01074 0.48913 7.01074H9.94561C10.2156 7.01074 10.4347 7.22987 10.4347 7.49987C10.4347 7.76986 10.2156 7.98899 9.94561 7.98899Z" fill="#FFD300"/>
<path d="M7.33691 10.5979C7.21164 10.5979 7.08649 10.5504 6.9912 10.4545C6.80013 10.2634 6.80013 9.95365 6.9912 9.76246L9.25426 7.49951L6.9912 5.23644C6.80013 5.04538 6.80013 4.73549 6.9912 4.54442C7.18239 4.35336 7.49215 4.35336 7.68322 4.54442L10.2919 7.1532C10.4829 7.34427 10.4829 7.65404 10.2919 7.8451L7.68322 10.4538C7.58733 10.5504 7.46218 10.5979 7.33691 10.5979Z" fill="#FFD300"/>
<path d="M7.82606 14.6738C4.85796 14.6738 2.23759 12.8882 1.14911 10.1242C1.04999 9.87376 1.17383 9.58943 1.42496 9.49032C1.67538 9.39251 1.96043 9.51444 2.05954 9.76689C2.99935 12.1532 5.26302 13.6956 7.82606 13.6956C11.2421 13.6956 14.0218 10.9159 14.0218 7.49988C14.0218 4.08385 11.2421 1.30419 7.82606 1.30419C5.26302 1.30419 2.99935 2.84657 2.05954 5.23288C1.95971 5.48532 1.67538 5.60725 1.42496 5.50944C1.17383 5.41033 1.04999 5.126 1.14911 4.87558C2.23759 2.11156 4.85796 0.325928 7.82606 0.325928C11.7815 0.325928 15 3.54444 15 7.49988C15 11.4553 11.7815 14.6738 7.82606 14.6738Z" fill="#FFD300"/>
</g>
<defs>
<clipPath id="clip0">
<rect width="15" height="15" fill="white"/>
</clipPath>
</defs>
</svg>
