<svg width="47" height="57" viewBox="0 0 47 57" fill="none" xmlns="http://www.w3.org/2000/svg">
<path d="M3.46599 0.251709L0.752228 7.96927L2.72656 39.0865L18.2722 55.3914L28.5124 55.2667L43.9344 39.5838C43.9344 39.5838 46.1552 26.0165 45.6614 25.3945C45.1676 24.7724 46.1552 7.47111 46.1552 7.47111L42.7003 0.251709H3.46599Z" fill="#FFD300"/>
<path d="M2.93739 0L0 8.27189L0.51118 24.9659L1.97567 40.1022L18.0606 56.1468H28.6017L44.5536 40.1871L46.2867 25.2775V25.2469L46.6572 8.29651V8.21162L43.836 0H2.93739ZM24.2234 16.4691L26.1401 17.8274L28.8089 31.7081L24.1939 33.5553L24.2234 16.4691ZM33.4996 20.7137L33.6967 20.7901L39.9395 19.7892L42.9063 27.1808L34.6803 39.7219L30.4561 31.9288L27.8783 18.5158L33.4996 20.7137ZM29.0691 17.2764L33.4718 15.6516L38.6771 16.7339L39.3062 18.2858L33.8684 19.1508L29.0691 17.2764ZM38.9508 15.1702L33.3505 14.0055L26.8585 16.402L24.2478 14.7042L44.9367 8.29227L38.9508 15.1702ZM23.3947 35.5953L29.3495 33.1988L32.8065 39.5767L27.9019 37.3695L18.6282 37.5656L13.7631 39.5538L17.4458 33.1869L23.3947 35.5953ZM32.4899 41.3985H14.3341L18.9213 39.1599L27.6189 38.9825L32.4899 41.3985ZM19.6051 16.2348L13.0928 14.0148L7.58771 14.9996L1.52007 7.85932L22.7648 14.6914L19.6051 16.2348ZM22.6452 16.4428L22.6157 33.5528L17.984 31.6996L20.3032 17.6712L22.6452 16.4428ZM17.3886 17.1559L12.9328 19.054L7.26348 18.0914L7.85972 16.5633L12.9707 15.649L17.3886 17.1559ZM13.1239 20.6959L18.5937 18.3664L16.3544 31.9271L11.8506 39.71C10.104 37.1038 5.4933 29.9423 3.71637 27.1782L6.67061 19.6092L13.1239 20.6959ZM3.98418 1.79547C7.54307 1.8082 22.6191 1.82094 22.6191 1.82094L22.7378 12.9418C22.7378 12.9418 6.02637 7.56814 2.19883 6.23533L3.98418 1.79547ZM1.99167 24.8912L1.55712 10.6913L6.38007 16.0191L2.4279 26.1468L2.0742 25.7486L1.99167 24.8912ZM12.6582 48.6534L10.9647 46.9649L3.39973 39.4197L2.36726 28.7717C3.39636 29.9941 5.03601 32.1436 5.87815 33.4458C7.42517 35.8389 8.65722 37.7312 9.53558 39.0716L10.8375 41.0538L12.7071 43.8476L15.0836 47.3834L16.0723 52.0593L12.6582 48.6534ZM14.196 42.9868H32.1673L30.1335 46.2552H16.2281L14.196 42.9868ZM27.6197 54.6519H18.6737L18.544 54.5228C18.0252 52.5355 16.8336 47.8435 16.8336 47.8435H29.5171C29.5171 47.8435 28.1756 52.7231 27.6189 54.651L27.6197 54.6519ZM43.1438 39.491L35.6934 46.9445L33.8499 48.7884L29.8598 52.7783C30.3879 50.7655 31.2645 47.3876 31.2645 47.3876L33.828 43.7458L35.647 41.1574C35.647 41.1574 42.0566 31.4169 44.4677 28.084L43.1438 39.491ZM44.8112 25.1391L44.7986 25.2444L44.1594 25.8505L40.1576 16.194C40.1576 16.194 43.5354 12.3306 45.1262 10.7278L44.8112 25.1391ZM44.194 6.36521C40.4843 7.57238 24.1939 13.0267 24.1939 13.0267V1.82094C24.1939 1.82094 38.811 1.82094 42.4297 1.86933L44.194 6.36521Z" fill="#0B0B0B"/>
<path d="M6.73823 16.1241L13.4616 15.1069L19.0644 17.1422L12.9947 19.639L6.27133 18.7142L6.73823 16.1241Z" fill="#0B0B0B"/>
<path d="M28.1521 16.407L34.0219 14.603L39.5189 16.407L40.637 19.5403L33.556 20.394L27.593 17.3565L28.1521 16.407Z" fill="#0B0B0B"/>
</svg>
